<?xml version="1.0" encoding="UTF-8" standalone="no"?>
<!-- Generator: Adobe Illustrator 19.0.0, SVG Export Plug-In . SVG Version: 6.00 Build 0)  -->

<svg
   xmlns:dc="http://purl.org/dc/elements/1.1/"
   xmlns:cc="http://creativecommons.org/ns#"
   xmlns:rdf="http://www.w3.org/1999/02/22-rdf-syntax-ns#"
   xmlns:svg="http://www.w3.org/2000/svg"
   xmlns="http://www.w3.org/2000/svg"
   xmlns:sodipodi="http://sodipodi.sourceforge.net/DTD/sodipodi-0.dtd"
   xmlns:inkscape="http://www.inkscape.org/namespaces/inkscape"
   version="1.1"
   id="Layer_1"
   x="0px"
   y="0px"
   viewBox="0 0 512 512"
   style="enable-background:new 0 0 512 512;"
   xml:space="preserve"
   sodipodi:docname="rss - copia.svg"
   inkscape:version="0.92.4 (5da689c313, 2019-01-14)"><metadata
   id="metadata57"><rdf:RDF><cc:Work
       rdf:about=""><dc:format>image/svg+xml</dc:format><dc:type
         rdf:resource="http://purl.org/dc/dcmitype/StillImage" /></cc:Work></rdf:RDF></metadata><defs
   id="defs55" /><sodipodi:namedview
   pagecolor="#ffffff"
   bordercolor="#666666"
   borderopacity="1"
   objecttolerance="10"
   gridtolerance="10"
   guidetolerance="10"
   inkscape:pageopacity="0"
   inkscape:pageshadow="2"
   inkscape:window-width="1366"
   inkscape:window-height="705"
   id="namedview53"
   showgrid="false"
   inkscape:zoom="2"
   inkscape:cx="256"
   inkscape:cy="252.13119"
   inkscape:window-x="-8"
   inkscape:window-y="-8"
   inkscape:window-maximized="1"
   inkscape:current-layer="Layer_1" />
<path
   style="fill:#EC7838;"
   d="M512,428.556V83.444c0-22.986-9.289-43.927-24.403-59.041S451.542,0,428.556,0H83.444  C37.392-0.079-0.079,37.392,0,83.444v345.111c0,22.986,9.289,43.927,24.403,59.041S60.458,512,83.444,511.999h345.111  C474.608,512.079,512.079,474.608,512,428.556z"
   id="path2" />
<path
   style="fill:#DB632C;"
   d="M428.556,512H83.444c-22.986,0-43.927-9.289-59.041-24.403L487.597,24.403  C502.711,39.517,512.001,60.458,512,83.444v345.111C512.079,474.608,474.608,512.079,428.556,512z"
   id="path4" />
<g
   id="g12">
	<path
   style="fill:#E6EEFF;"
   d="M172.477,389.589c0-13.855-5.589-26.371-14.642-35.425c-9.053-9.053-21.57-14.642-35.425-14.642   c-27.632-0.079-50.146,22.436-50.066,50.066c0,13.855,5.59,26.37,14.643,35.423s21.569,14.642,35.423,14.642   C150.041,439.735,172.556,417.22,172.477,389.589z"
   id="path6" />
	<path
   style="fill:#E6EEFF;"
   d="M389.589,422.967c-18.421,0-33.377-14.957-33.378-33.378   c0.079-64.472-26.213-122.883-68.566-165.235s-100.763-68.645-165.235-68.566c-18.42,0-33.377-14.957-33.378-33.378   c0-18.42,14.957-33.377,33.377-33.377c82.894,0.079,158.072,33.692,212.467,88.088s88.009,129.575,88.088,212.467   C422.967,408.01,408.01,422.967,389.589,422.967z"
   id="path8" />
	<path
   style="fill:#E6EEFF;"
   d="M256,423.046c-18.42,0-33.456-15.035-33.456-33.456c0-27.553-11.178-52.586-29.363-70.77   c-18.105-18.105-43.139-29.284-70.77-29.363c-18.421,0-33.456-15.036-33.456-33.456s15.035-33.456,33.456-33.456   c46.052,0.079,87.773,18.814,118.002,49.043s48.964,71.951,49.043,118.002C289.456,408.011,274.42,423.046,256,423.046z"
   id="path10" />
</g>
<g
   id="g20">
	<path
   style="fill:#DAE2F2;"
   d="M122.411,439.656c-13.855,0-26.37-5.59-35.423-14.642l70.849-70.849   c9.053,9.053,14.642,21.57,14.642,35.425C172.556,417.22,150.041,439.735,122.411,439.656z"
   id="path14" />
	<path
   style="fill:#DAE2F2;"
   d="M256,423.046c-18.42,0-33.456-15.035-33.456-33.456c0-27.553-11.178-52.586-29.363-70.77   l47.232-47.232c30.229,30.229,48.964,71.951,49.043,118.002C289.456,408.011,274.42,423.046,256,423.046z"
   id="path16" />
	<path
   style="fill:#DAE2F2;"
   d="M389.589,422.967c-18.421,0-33.377-14.957-33.378-33.378   c0.079-64.472-26.213-122.883-68.566-165.235l47.232-47.232c54.396,54.396,88.009,129.575,88.088,212.467   C422.967,408.01,408.01,422.967,389.589,422.967z"
   id="path18" />
</g>
<g
   id="g22">
</g>
<g
   id="g24">
</g>
<g
   id="g26">
</g>
<g
   id="g28">
</g>
<g
   id="g30">
</g>
<g
   id="g32">
</g>
<g
   id="g34">
</g>
<g
   id="g36">
</g>
<g
   id="g38">
</g>
<g
   id="g40">
</g>
<g
   id="g42">
</g>
<g
   id="g44">
</g>
<g
   id="g46">
</g>
<g
   id="g48">
</g>
<g
   id="g50">
</g>
<path
   style="fill:#0000ff;fill-opacity:1;stroke-width:0.76703107"
   d="m 70.837753,510.7645 c -15.696827,-2.4384 -30.209798,-9.16293 -42.35621,-19.62559 l -3.966635,-3.41678 31.20811,-31.21507 31.208109,-31.21508 2.894311,2.61484 c 4.312693,3.89626 8.712733,6.46308 15.579662,9.08862 5.80871,2.22092 6.78018,2.35718 16.90138,2.37057 9.73801,0.0129 11.26256,-0.17647 16.3643,-2.03238 7.90971,-2.87739 13.38269,-6.34295 19.23555,-12.1802 9.58608,-9.5605 13.82398,-19.34569 14.42732,-33.31222 0.57001,-13.19489 -3.01058,-24.68478 -10.48354,-33.64113 -1.71031,-2.04981 -3.10965,-3.95108 -3.10965,-4.22507 0,-0.27398 7.70824,-8.20067 17.12942,-17.61488 l 17.12943,-17.11674 4.034,4.41385 c 11.3056,12.37011 20.26083,30.69109 23.39268,47.85764 0.6542,3.58587 1.49598,11.0823 1.87063,16.65875 0.62372,9.28397 0.90716,10.60997 3.361,15.72414 4.92103,10.25608 14.19372,17.20039 25.34665,18.98208 14.07215,2.24804 29.29049,-5.75821 35.30976,-18.57618 3.0032,-6.39528 3.8497,-12.09622 3.27413,-22.05035 -2.32244,-40.16568 -16.60476,-74.86188 -43.12909,-104.77402 l -5.50712,-6.21051 23.37111,-23.32018 23.37112,-23.32018 4.21418,4.60219 c 25.51489,27.86406 42.11727,56.05811 53.07179,90.12615 6.70605,20.85549 10.85578,46.467 10.87938,67.14582 0.0138,12.09726 3.18712,20.34467 10.48272,27.24454 19.35906,18.30899 51.42841,8.02344 56.34292,-18.07077 1.58735,-8.42827 -0.0979,-34.31173 -3.62069,-55.60975 -9.6063,-58.07743 -37.08419,-113.77357 -76.84614,-155.76274 l -6.95276,-7.34222 76.13807,-76.1352 76.13808,-76.135192 3.70036,4.0897 c 8.08567,8.936412 14.9631,22.141711 18.26189,35.064476 l 1.68726,6.609746 V 256.0767 441.69823 l -1.69508,6.35251 c -3.92354,14.70385 -10.81834,27.32409 -20.58301,37.67515 -12.98577,13.7656 -30.31907,22.58899 -49.82283,25.36193 -8.57473,1.21911 -360.311373,0.91029 -368.252567,-0.32332 z"
   id="path3904"
   inkscape:connector-curvature="0" /><path
   style="fill:#0000ff;fill-opacity:1;stroke-width:0.76703107"
   d="M 20.651011,482.92615 C 11.641372,472.73927 5.500528,460.41524 2.0188621,445.53338 0.40577705,438.63849 0.40350449,438.41711 0.14876549,263.3635 -0.01539795,150.5524 0.16856364,84.543632 0.66501001,78.125491 2.2970512,57.026208 10.350581,39.205945 24.677403,24.992623 36.738711,13.026866 48.636485,6.3936895 65.929697,1.9938873 70.482474,0.83555331 86.56732,0.70212319 251.1677,0.45726585 382.25781,0.262258 433.36699,0.42622518 438.55861,1.0584487 c 16.6921,2.0327308 32.64388,9.1241613 44.8943,19.9579543 l 3.70996,3.280931 -76.15201,76.154886 -76.152,76.15489 -5.79854,-5.52004 C 283.69159,127.89736 223.6111,99.35481 160.912,91.204545 145.65645,89.221478 123.35735,88.207187 117.47091,89.228596 104.24453,91.52363 94.245954,100.10744 90.291747,112.56198 c -2.218798,6.98852 -1.594427,16.75965 1.499983,23.47436 5.899543,12.80168 17.38957,19.94281 32.08783,19.94281 8.99065,0 24.38065,1.34752 35.41967,3.10127 46.1238,7.32763 87.86201,27.90248 123.31675,60.78899 l 4.60219,4.26881 -23.35102,23.40906 -23.35101,23.40906 -5.41265,-4.7778 c -13.78117,-12.16477 -24.14369,-19.20093 -39.16202,-26.59108 -20.79306,-10.23174 -39.69412,-15.25422 -63.44149,-16.85796 -12.51809,-0.84539 -18.25096,-0.13843 -24.84824,3.06425 -12.313795,5.97778 -19.246705,18.01964 -18.566425,32.24826 0.278654,5.8282 0.693572,7.4717 3.131803,12.40514 3.46425,7.00942 9.314252,12.77889 16.246542,16.02291 3.99755,1.87068 6.5717,2.45803 13.23783,3.02051 21.39051,1.80493 30.08132,3.80434 42.81345,9.84967 9.60935,4.56262 17.82124,9.93711 23.54455,15.40938 l 4.4174,4.22363 -17.29165,17.48001 -17.29165,17.48001 -3.41185,-3.00323 c -11.19558,-9.85476 -29.2727,-13.97753 -44.36378,-10.11788 -13.877074,3.54916 -26.393962,13.5837 -32.569153,26.11005 -8.825488,17.90246 -6.706547,38.86838 5.434791,53.77467 l 3.49668,4.29298 L 55.6834,455.7797 c -16.938286,16.93442 -31.024842,30.78984 -31.30346,30.78984 -0.278618,0 -1.956636,-1.63952 -3.728929,-3.64339 z"
   id="path3906"
   inkscape:connector-curvature="0" /><path
   style="fill:#0000ff;fill-opacity:1;stroke-width:0.76703107"
   d="M 74.367039,510.3169 C 59.652882,509.38575 44.358323,503.18808 31.307466,492.86827 l -6.238506,-4.93303 30.919197,-30.92626 30.919196,-30.92627 4.27652,3.35915 c 5.003567,3.93023 14.353987,8.43242 20.050027,9.654 2.33295,0.50033 8.04601,0.71784 13.67592,0.52068 8.50702,-0.29791 10.37819,-0.61909 15.56838,-2.67223 15.39494,-6.08994 27.79405,-20.17803 30.91984,-35.1317 1.42666,-6.82506 1.43819,-17.68531 0.0258,-24.34995 -1.35398,-6.3893 -4.83611,-13.82008 -8.86421,-18.91601 -1.6787,-2.12373 -3.05219,-4.13329 -3.05219,-4.4657 0,-0.3324 7.5545,-8.15303 16.78779,-17.37916 l 16.78779,-16.77477 2.96326,3.26689 c 7.5023,8.27103 13.33989,17.61339 18.05107,28.88858 4.32787,10.35781 5.88986,17.21624 7.51674,33.00474 1.27929,12.41513 1.70357,14.51223 3.8432,18.99542 6.3988,13.40747 21.33012,21.37715 35.49849,18.94755 13.71784,-2.35235 24.39434,-11.93836 27.90275,-25.05275 3.44299,-12.86991 -1.80522,-47.71748 -10.45443,-69.41631 -6.95742,-17.45451 -17.15901,-34.24039 -29.83438,-49.08999 l -6.87461,-8.05383 3.53948,-3.62572 c 4.61979,-4.73235 3.54625,-5.79632 -1.17965,-1.16912 l -3.62572,3.55 -9.20437,-7.69839 c -11.79249,-9.86306 -21.27664,-16.14641 -33.74937,-22.35934 -22.28571,-11.10098 -41.91988,-16.28695 -67.49874,-17.82843 -14.1747,-0.85422 -22.60793,1.61678 -30.672405,8.98726 -2.934461,2.68193 -5.088668,5.6214 -7.096832,9.68381 -2.851093,5.76762 -2.883408,5.9366 -2.883408,15.07834 0,8.94656 0.08256,9.40982 2.554728,14.33461 3.289144,6.55229 9.822687,13.11628 15.990807,16.06532 4.04391,1.93344 6.74387,2.49184 18.40874,3.80726 15.51865,1.75001 23.87077,3.53713 32.33924,6.91972 10.84375,4.33135 23.79333,12.37384 29.82268,18.52172 l 3.2373,3.30095 -16.70726,17.2251 -16.70726,17.22511 -4.55528,-3.57806 c -8.81668,-6.92529 -19.57642,-10.53521 -31.40136,-10.53521 -11.98118,0 -22.09724,3.45302 -30.939302,10.56085 -12.310473,9.89596 -18.321407,21.55542 -19.09924,37.04697 -0.664586,13.23609 2.364083,23.31407 10.004806,33.29129 l 3.524431,4.60218 -30.695463,30.68125 -30.695464,30.68124 -3.845541,-4.21867 C 12.762917,473.41295 6.5420045,461.21842 2.756897,447.06744 L 1.1155704,440.93119 V 257.22725 c 0,-175.047102 0.066068,-184.011182 1.4020102,-190.223709 C 5.7371341,52.031661 12.364508,39.052171 22.208925,28.438701 32.929346,16.880794 44.381632,9.3529181 58.642902,4.4897313 63.779243,2.7382052 66.84146,2.2843658 77.435163,1.7046029 84.47792,1.3191729 168.16641,1.1029886 266.12481,1.2171793 l 176.03363,0.2052035 6.46376,1.8147421 c 13.26696,3.7247878 27.01972,10.9729521 35.25441,18.5802501 l 2.59958,2.401521 -75.85105,75.807464 -75.85105,75.80747 -8.43734,-7.70002 c -40.925,-37.34864 -89.63672,-62.30527 -143.43481,-73.486423 -24.36261,-5.063418 -56.41682,-7.594643 -67.26923,-5.312051 -10.33308,2.17336 -18.745393,8.693423 -23.425157,18.155944 -2.590133,5.23727 -2.910231,6.55021 -3.147151,12.9086 -0.403727,10.83533 2.3602,18.58722 9.105456,25.53774 6.862992,7.07185 13.823892,9.6933 27.592262,10.39114 35.46222,1.79738 61.2534,7.37787 88.66282,19.18416 23.34739,10.05662 48.46598,26.46888 66.66098,43.55567 l 5.36921,5.0422 -17.44995,17.58632 c -9.59748,9.67248 -17.44996,17.81401 -17.44996,18.0923 0,0.27828 0.22769,0.50596 0.50596,0.50596 0.27829,0 8.4203,-7.85248 18.09336,-17.44995 l 17.5874,-17.44996 4.63389,4.9857 c 12.40089,13.34236 27.15177,33.84837 35.32876,49.11245 17.01932,31.77015 26.00765,65.40538 27.76791,103.91025 0.27,5.90614 0.82706,12.25095 1.2379,14.09959 3.63125,16.33904 20.85335,28.02604 37.37794,25.36483 13.9538,-2.24719 23.36858,-10.06873 27.81102,-23.10463 1.55153,-4.5528 1.62662,-5.831 1.20904,-20.57846 -1.57198,-55.51497 -19.3854,-110.54472 -51.14815,-158.0084 -7.96736,-11.90577 -17.35483,-23.821 -27.4961,-34.89992 l -8.42537,-9.20437 75.79127,-75.84586 75.79127,-75.845853 2.96611,3.271035 c 7.35269,8.108594 14.76777,21.961944 18.25213,34.099887 l 1.97217,6.870121 v 186.59093 186.59093 l -2.98317,9.08476 c -4.77573,14.54371 -10.17063,23.85268 -19.54274,33.72124 -11.73117,12.35257 -25.6663,20.05773 -43.43877,24.01861 -6.30311,1.40476 -12.42034,1.44961 -184.08746,1.34993 -97.66223,-0.0567 -181.537079,-0.35431 -186.388551,-0.66133 z"
   id="path3908"
   inkscape:connector-curvature="0" /><path
   style="fill:#0000ff;fill-opacity:1;stroke-width:0.76703107"
   d="M 74.367039,510.3253 C 59.599788,509.38902 44.428374,503.24347 31.345612,492.89843 l -6.276652,-4.96319 30.931194,-30.93826 30.931192,-30.93827 1.963431,1.52348 c 5.318309,4.12663 10.343605,7.13344 15.481483,9.2631 4.92519,2.0415 6.84947,2.39441 14.8621,2.72567 11.73939,0.48534 16.66738,-0.44274 25.52126,-4.80637 11.97475,-5.90176 21.46577,-16.69309 25.60832,-29.11683 1.55597,-4.66644 1.78573,-6.82495 1.75539,-16.49116 -0.0323,-10.27805 -0.19887,-11.55846 -2.19563,-16.87469 -1.79396,-4.7763 -4.76331,-9.9063 -10.03346,-17.33438 -0.59003,-0.83163 3.10925,-4.94957 16.26121,-18.10153 l 17.025,-17.02499 3.29808,3.70853 c 10.08516,11.34024 18.34497,26.90737 22.19989,41.83977 0.81813,3.16913 2.13513,11.81037 2.92664,19.20276 1.85339,17.30983 3.78335,22.33223 11.37792,29.60911 7.27195,6.96775 18.37782,10.49993 27.79707,8.84076 13.77905,-2.42713 24.57046,-12.10815 27.94693,-25.0713 3.09547,-11.8843 -0.3405,-39.59442 -7.61735,-61.43184 -7.22534,-21.68284 -18.32564,-40.71418 -34.81792,-59.69496 l -4.63287,-5.33191 3.41213,-3.64784 c 3.25299,-3.47771 3.92352,-4.48059 2.99575,-4.48059 -0.229,0 -2.06985,1.54662 -4.09075,3.43695 l -3.67439,3.43695 -7.60646,-6.52568 c -23.40492,-20.0794 -51.23842,-33.60903 -79.67545,-38.72956 -12.66196,-2.27998 -28.86326,-3.39177 -35.14153,-2.41151 -18.263713,2.85159 -29.742134,17.18125 -28.785692,35.93605 0.291694,5.71984 0.731449,7.53065 2.824968,11.63269 4.519562,8.8556 12.417774,15.68646 20.863994,18.04448 2.28573,0.63813 9.41397,1.70993 15.84055,2.38178 14.0332,1.46705 23.77557,3.82512 33.59405,8.13117 8.58934,3.76699 21.60797,12.1926 26.28099,17.00896 l 3.29397,3.39501 -16.77506,17.1682 -16.77506,17.1682 -4.92766,-3.73132 c -10.06302,-7.61992 -21.02307,-10.90337 -34.00431,-10.18713 -13.08623,0.72203 -22.635319,5.07075 -32.454567,14.78004 -5.076457,5.01962 -6.907752,7.49111 -9.398478,12.68404 -4.189864,8.73545 -5.640655,15.93299 -5.165263,25.62542 0.547713,11.1669 3.575172,19.19835 10.858106,28.8051 l 2.648121,3.49308 -30.624246,30.61707 -30.624245,30.61707 -2.775473,-2.66187 C 17.837676,479.70459 10.43144,468.23897 7.7172328,461.71915 6.4503616,458.67598 4.4476341,453.09893 3.2667271,449.32569 L 1.1196234,442.46526 0.87921986,261.82944 C 0.70091036,127.85024 0.86936527,79.312832 1.53141,73.911966 3.9764025,53.966074 11.834573,38.216664 26.289794,24.291007 36.42392,14.528144 45.770669,8.7924516 58.642902,4.4373142 63.583494,2.7657349 67.021007,2.229631 76.284617,1.6859665 82.612623,1.3145873 167.69555,1.1033531 265.35778,1.2165571 l 177.5677,0.2058257 6.13624,1.7848802 c 12.65132,3.6799503 25.82047,10.682428 34.88647,18.55031 l 2.67117,2.318153 -75.92264,75.890477 -75.92263,75.890477 -8.05382,-7.33334 C 278.4942,124.61157 219.99028,97.831088 156.05585,90.400765 c -16.74272,-1.945804 -35.194,-2.349063 -40.83263,-0.892425 -10.73786,2.773937 -18.59509,9.028194 -23.264039,18.51789 -2.539502,5.16156 -2.635036,5.67604 -2.635036,14.19007 0,8.3486 0.135021,9.11936 2.455612,14.01834 4.465647,9.42735 13.411003,16.80722 22.856413,18.85645 2.10934,0.45763 9.78782,1.19195 17.06329,1.63182 37.05465,2.24032 65.73231,9.65128 95.30676,24.62946 19.48871,9.87019 45.05742,27.96472 56.73463,40.15012 l 2.65893,2.77465 -11.4702,11.48935 c -6.30861,6.31914 -10.96109,11.48936 -10.33884,11.48936 0.62225,0 6.07855,-4.91859 12.12511,-10.9302 l 10.99373,-10.93019 4.97942,5.31619 c 24.92532,26.61112 44.23732,60.85337 53.9424,95.64566 5.3097,19.03506 7.45598,33.24911 9.16612,60.7041 0.63575,10.20637 0.93624,11.82071 3.03514,16.30596 3.26669,6.98075 9.01161,12.79333 16.11354,16.30329 5.65666,2.79567 5.94533,2.85179 14.67062,2.85179 8.72528,0 9.01395,-0.0562 14.67062,-2.85179 7.14619,-3.53184 12.82888,-9.30887 16.23962,-16.5092 l 2.45561,-5.18401 -0.0692,-16.10765 c -0.0508,-11.83134 -0.51299,-19.46762 -1.74078,-28.76366 C 412.70028,288.95887 386.7663,232.7406 344.03591,185.89336 l -8.0457,-8.82086 75.87386,-75.90616 75.87385,-75.906164 2.71195,3.03821 c 7.40502,8.295874 14.89402,22.333079 18.3812,34.453323 l 1.97665,6.870121 v 186.62765 186.62765 l -2.74836,8.50151 c -9.54885,29.53758 -28.60122,48.18067 -58.61413,57.355 l -6.51976,1.99297 -179.86879,0.079 C 164.12885,510.849 79.218511,510.6329 74.367039,510.3253 Z"
   id="path3910"
   inkscape:connector-curvature="0" /><path
   style="fill:#0000ff;fill-opacity:1;stroke-width:0.76703107"
   d="m 74.367039,510.32606 c -10.205576,-0.64794 -18.145797,-2.89724 -28.38015,-8.0395 -6.395998,-3.21369 -14.420436,-8.60849 -18.603642,-12.50718 l -2.112473,-1.96879 2.056554,-2.14659 c 2.542511,-2.65381 1.738871,-3.87439 -0.911538,-1.38446 l -1.923335,1.80688 -2.700728,-2.61764 C 14.997926,476.88396 8.4701988,465.13978 3.6905936,450.9026 L 1.1155704,443.23229 V 257.22725 71.222212 L 3.1464352,63.878831 C 7.7860524,47.102494 14.40825,35.744651 26.160923,24.406288 37.020512,13.929529 47.035853,7.9480969 61.097879,3.5409973 l 6.749396,-2.1152897 187.922615,-0.00166 187.92262,-0.00166 6.89906,2.1603239 c 12.23572,3.8314054 24.45112,10.4586745 33.37007,18.1043855 l 2.68461,2.301364 -75.9002,75.932316 -75.90019,75.932313 -3.87104,-3.44187 C 318.39323,161.22453 310.81968,154.8462 304.05369,149.73865 260.5743,116.91667 210.0266,96.734018 155.50283,90.425387 141.01292,88.748841 122.39757,88.135861 116.93726,89.155467 106.272,91.14701 96.627792,98.471574 91.876725,108.18841 c -2.445648,5.00182 -2.551951,5.59002 -2.537653,14.04137 0.0135,7.96666 0.216548,9.25434 2.097063,13.29717 2.607951,5.60674 5.923535,9.82435 10.677005,13.58175 6.36878,5.03423 10.53568,6.11903 28.24717,7.3538 39.89902,2.7816 67.17968,9.85919 97.45185,25.28256 17.44045,8.88573 39.28581,24.06384 52.11921,36.21232 l 6.51976,6.17179 -9.62159,9.83752 c -5.29188,5.41063 -10.29675,10.70043 -11.12195,11.75509 l -1.50036,1.91758 1.91758,-1.50036 c 1.05467,-0.82519 6.31151,-5.81819 11.68186,-11.09555 l 9.76428,-9.5952 2.7739,2.65822 c 3.92506,3.76135 13.47633,15.20053 19.74734,23.65059 19.90917,26.82721 34.34281,59.39251 40.70548,91.83998 2.79653,14.26139 3.4409,19.48411 4.62738,37.50573 1.20999,18.3786 2.26321,22.37957 7.64117,29.02727 3.99129,4.93364 11.53273,10.07984 17.17509,11.72012 6.74569,1.96102 16.74837,1.16227 23.39808,-1.86844 6.99576,-3.18843 13.60936,-9.80008 16.80749,-16.80255 2.98242,-6.53019 3.48889,-14.06377 2.21482,-32.94499 -4.51412,-66.89765 -31.17294,-131.10939 -74.59964,-179.68437 -3.93344,-4.39976 -8.2485,-9.25772 -9.58901,-10.79545 l -2.43728,-2.79589 75.91118,-75.87906 75.91119,-75.879064 2.29573,2.684609 c 8.16136,9.543791 15.17675,22.601553 18.69334,34.793962 l 1.96052,6.797328 V 256.02734 442.57843 l -1.83041,6.11533 c -4.90669,16.39318 -11.23515,27.27373 -22.27799,38.30267 -10.81924,10.80563 -20.89949,16.72772 -37.30984,21.91931 l -5.69698,1.8023 -180.25231,0.084 c -99.13877,0.0462 -184.221689,-0.16799 -189.073161,-0.47601 z M 44.46821,468.52577 c 1.580612,-1.90451 0.08948,-2.3448 -1.741203,-0.51411 -1.352763,1.35276 -1.442309,1.6832 -0.456128,1.6832 0.674893,0 1.663692,-0.52608 2.197331,-1.16909 z m 88.62759,-29.58236 c 16.68753,-3.06975 32.38829,-17.61248 37.63856,-34.86247 1.9465,-6.39531 1.95188,-22.64251 0.01,-29.11442 -1.55596,-5.18475 -5.71048,-13.18031 -9.02477,-17.36857 -1.21649,-1.53725 -2.21177,-3.09343 -2.21177,-3.45819 0,-0.36475 7.60846,-8.25385 16.90768,-17.53133 l 16.90767,-16.86815 2.29375,2.68461 c 8.23852,9.6424 13.52288,17.9128 17.89607,28.00867 4.34543,10.03176 6.44211,18.62748 8.09302,33.17881 0.84852,7.47893 1.84699,14.64337 2.21883,15.92098 4.45316,15.30076 21.96606,26.26868 37.31872,23.37183 14.35884,-2.70931 25.49717,-13.51101 28.07741,-27.22882 1.79428,-9.53931 -0.58538,-31.45668 -5.42825,-49.99575 -6.37715,-24.41243 -19.13317,-47.70015 -37.92321,-69.23359 l -4.31212,-4.94171 2.54561,-2.7286 c 1.4001,-1.50073 3.04474,-3.41893 3.65478,-4.26266 1.04973,-1.45186 1.02696,-1.47464 -0.4249,-0.42491 -0.84374,0.61004 -2.77549,2.26792 -4.29278,3.68418 l -2.75871,2.57502 -6.40081,-5.52211 c -21.32702,-18.39927 -44.23817,-30.65637 -69.4254,-37.14147 -19.44992,-5.00787 -42.70713,-6.80096 -51.86165,-3.99843 -5.84758,1.79017 -13.39985,6.9997 -16.933286,11.68053 -4.802374,6.36184 -6.197657,10.96925 -6.271668,20.70984 -0.0606,7.97859 0.07026,8.721 2.406974,13.65439 3.220879,6.80005 9.94044,13.59056 16.47411,16.64803 4.04928,1.89489 7.01386,2.51688 18.25657,3.83037 15.17489,1.77287 23.32511,3.52145 31.9915,6.86357 10.79901,4.16453 24.37497,12.74445 30.81963,19.47779 l 2.59994,2.71641 -16.89472,17.07988 -16.89471,17.07988 -4.11397,-3.10617 c -9.37701,-7.07993 -17.81345,-10.21638 -29.04111,-10.79674 -14.91914,-0.77117 -27.166136,3.95424 -37.869019,14.61147 -10.765013,10.71909 -14.637593,20.19992 -14.618139,35.78805 0.01053,8.43922 0.262363,10.30722 2.102018,15.59207 2.031772,5.83677 5.719681,12.41208 9.488772,16.91787 l 1.850516,2.21222 -1.744827,1.85728 c -1.589027,1.69145 -1.609461,1.80861 -0.228805,1.31212 0.833809,-0.29985 1.873857,-0.81793 2.311218,-1.1513 0.451751,-0.34432 2.217379,0.5193 4.087976,1.99956 6.531048,5.1682 14.90991,9.18243 21.57939,10.33848 5.24506,0.90914 16.04643,0.87925 21.14424,-0.0585 z m -50.674935,-8.36713 c 0.763572,-0.84374 1.215729,-1.53407 1.004796,-1.53407 -0.210934,0 -1.008255,0.69033 -1.771827,1.53407 -0.763571,0.84373 -1.215729,1.53406 -1.004795,1.53406 0.210933,0 1.008255,-0.69033 1.771826,-1.53406 z"
   id="path3912"
   inkscape:connector-curvature="0" /><path
   style="fill:#0000ff;fill-opacity:1;stroke-width:0.76703107"
   d="M 73.216492,510.31888 C 58.411765,509.2012 42.16209,502.18842 29.293329,491.3632 l -4.037548,-3.39639 1.959736,-2.32901 c 2.410116,-2.86425 1.835956,-3.83436 -0.802409,-1.35574 l -1.926016,1.8094 -3.063572,-2.9915 C 14.945853,476.77469 8.79061,465.89262 4.06368,452.4089 L 1.1155704,443.99932 0.88647098,262.21295 C 0.72937803,137.56238 0.91322963,78.189983 1.4714233,73.310503 3.4643427,55.889279 11.080501,39.948752 23.685203,26.817334 34.636894,15.408 45.96338,8.3526421 60.943995,3.6085347 l 6.90328,-2.1861519 H 256.15341 444.45954 l 8.40626,2.9088421 c 4.62344,1.5998632 11.40507,4.4899865 15.07029,6.4224961 6.25213,3.296477 18.32664,11.957085 18.32664,13.145035 0,0.295606 -34.09455,34.630716 -75.76568,76.300244 l -75.76567,75.76278 -7.26544,-6.5951 C 299.90643,144.34993 271.94311,126.30041 239.27268,112.44051 206.18123,98.401989 171.98006,90.71307 134.19546,88.817636 c -17.891,-0.897488 -27.07451,1.725406 -35.483514,10.134414 -14.922666,14.92266 -12.203779,40.25292 5.543014,51.641 5.77525,3.70598 9.73118,4.57643 26.48886,5.8285 39.35839,2.94074 66.14153,9.75706 94.75184,24.11439 19.99296,10.03293 40.8222,24.41227 55.66953,38.43113 l 5.45249,5.14825 -5.70161,5.62577 c -3.13588,3.09417 -8.17823,8.38709 -11.20522,11.76202 l -5.50362,6.13625 6.90328,-6.26913 c 3.79681,-3.44802 9.08553,-8.48738 11.75272,-11.19858 l 4.84945,-4.92946 4.01034,4.29531 c 27.94324,29.92884 47.35069,65.39351 56.83211,103.85359 3.62189,14.69164 5.60948,28.25917 6.91628,47.21131 0.60075,8.71255 1.60468,17.52209 2.23094,19.57676 2.49599,8.18882 9.40891,15.64827 18.67921,20.15596 3.96487,1.92792 5.23454,2.14858 12.46822,2.16692 9.65357,0.0245 14.04857,-1.27262 20.564,-6.06901 5.10738,-3.75984 9.54844,-9.42741 11.92574,-15.21932 1.48601,-3.62043 1.63389,-5.32368 1.54638,-17.80985 -0.45052,-64.27619 -24.58988,-130.97896 -65.92624,-182.16988 -3.91753,-4.85147 -10.25213,-12.2725 -14.07689,-16.49117 l -6.9541,-7.67031 75.74086,-75.74432 c 41.65746,-41.659374 75.9827,-75.744318 76.27831,-75.744318 0.2956,0 2.63307,2.675021 5.19436,5.944491 5.87058,7.493736 12.20829,19.803518 15.28695,29.69196 l 2.37858,7.639815 V 256.13115 443.40217 l -2.75405,8.31768 c -5.13959,15.52241 -11.68699,26.22693 -22.23627,36.35466 -9.94151,9.54425 -18.93053,14.91487 -33.21858,19.84692 l -8.13929,2.80959 -181.78637,0.0835 c -99.9825,0.0459 -185.238007,-0.17711 -189.456678,-0.4956 z M 44.46821,468.52577 c 1.580612,-1.90451 0.08948,-2.3448 -1.741203,-0.51411 -1.352763,1.35276 -1.442309,1.6832 -0.456128,1.6832 0.674893,0 1.663692,-0.52608 2.197331,-1.16909 z m 94.54501,-31.28623 c 7.84945,-2.8492 13.18308,-6.44541 19.6263,-13.23305 8.87871,-9.35333 12.486,-17.22718 13.50613,-29.48068 1.092,-13.11698 -1.96814,-24.82429 -9.10183,-34.82127 -1.94499,-2.72565 -3.53633,-5.32532 -3.53633,-5.77706 0,-0.45174 -0.44074,-0.82134 -0.97943,-0.82134 -0.53869,0 -2.86854,-1.43022 -5.17746,-3.17827 -11.70793,-8.86388 -26.40804,-12.29666 -40.83618,-9.53611 -18.559171,3.55095 -34.460025,18.74708 -38.987274,37.25937 -1.498224,6.12635 -1.292109,20.03688 0.380141,25.65544 1.765072,5.93042 4.886634,12.05498 8.795953,17.25779 2.806958,3.73571 3.017416,4.30618 2.002396,5.42776 -1.671146,1.8466 -1.378968,2.54147 0.511786,1.21714 1.537453,-1.07687 1.959297,-0.92936 6.396081,2.23667 6.287484,4.48665 15.530037,8.81356 20.525917,9.60924 2.21695,0.35308 8.01384,0.50885 12.88197,0.34615 6.92584,-0.23147 9.96937,-0.70171 13.99183,-2.16178 z m -56.208839,-7.52083 c 0,-0.42187 -0.345164,-0.55371 -0.767031,-0.29298 -0.421867,0.26073 -0.767031,0.81921 -0.767031,1.24108 0,0.42186 0.345164,0.55371 0.767031,0.29298 0.421867,-0.26073 0.767031,-0.81921 0.767031,-1.24108 z m 183.896749,-8.46159 c 5.33734,-1.7198 12.55979,-6.65827 15.61426,-10.67653 6.0194,-7.91867 8.01325,-15.85789 7.25782,-28.89953 -2.19407,-37.87811 -15.58323,-71.3176 -40.59728,-101.39189 l -7.28437,-8.75796 3.58752,-4.26154 3.58753,-4.26152 -4.32018,3.64538 -4.32017,3.64539 -5.86212,-4.98186 c -22.67036,-19.2662 -45.49185,-31.48572 -70.93695,-37.98244 -13.65582,-3.48664 -35.16356,-5.67454 -44.97077,-4.5747 -15.04138,1.68681 -26.637729,12.84561 -28.781803,27.6958 -1.936309,13.41111 2.410426,24.39043 12.745453,32.19344 5.9168,4.46723 10.31383,5.82658 24.43327,7.55366 15.16841,1.85538 21.22645,3.07567 28.83094,5.80749 12.52042,4.49781 26.1346,12.73871 32.95047,19.94548 2.16806,2.2924 4.248,4.16801 4.62211,4.16801 1.19588,0 10.99471,12.83058 14.74763,19.31054 7.87786,13.60225 11.38757,25.00991 13.65811,44.39309 0.89679,7.65578 2.13196,15.34079 2.74481,17.0778 2.88393,8.17393 9.37468,15.21674 17.54956,19.04223 8.52321,3.98849 15.31486,4.34796 24.74416,1.30966 z"
   id="path3914"
   inkscape:connector-curvature="0" /><path
   style="fill:#0000ff;fill-opacity:1;stroke-width:0.76703107"
   d="M 73.216492,510.31887 C 58.247165,509.18879 42.31162,502.31379 29.307718,491.3755 l -4.023158,-3.38409 2.004861,-2.62851 c 2.257833,-2.96018 1.689759,-3.49154 -1.01561,-0.94998 l -1.786719,1.67854 -3.112177,-3.02084 C 15.147332,477.02581 9.0191699,466.3064 4.0521819,452.76964 L 1.1155704,444.76635 V 257.61077 70.45518 L 3.2652278,62.811848 C 7.3364786,48.336091 13.560249,37.365382 23.685203,26.817334 34.435867,15.617427 45.425742,8.7022418 60.560479,3.6142117 L 67.080244,1.4223828 H 256.15341 445.22657 l 8.05383,2.9406638 c 10.61461,3.8756745 19.98313,8.8621234 27.15102,14.4512864 3.20722,2.500828 5.83131,4.788818 5.83131,5.084423 0,0.295606 -34.09455,34.630716 -75.76568,76.300244 l -75.76567,75.76278 -7.26544,-6.5955 C 304.50479,148.52233 283.00628,133.81829 255.76989,120.32929 225.03451,105.1074 197.4465,96.499736 163.72616,91.610987 c -15.50352,-2.247693 -37.7317,-3.478325 -44.8308,-2.481998 -11.86686,1.665463 -22.069758,9.143763 -27.078663,19.847541 -2.205958,4.71403 -2.419369,5.84452 -2.426618,12.85432 -0.0096,9.29021 1.349308,13.84648 6.023488,20.19589 4.152836,5.64124 9.912653,9.88716 15.969823,11.77237 3.05614,0.95118 10.03198,1.87878 19.71533,2.62161 32.96225,2.52862 54.37905,7.13589 78.36558,16.85831 25.68355,10.41027 52.10129,27.27541 72.25343,46.12675 l 4.95755,4.63755 -3.1426,3.1426 c -4.06915,4.06915 -3.29299,4.87492 1.01407,1.05275 l 3.30955,-2.93697 5.05014,5.44766 c 23.69163,25.55642 42.62364,58.3671 52.48397,90.95891 5.71244,18.88158 8.31874,34.07283 10.13298,59.06173 1.31486,18.11058 2.27479,22.07788 6.85012,28.31073 9.50365,12.94656 27.67565,17.34096 42.31926,10.23375 5.7211,-2.77671 12.32072,-9.39294 15.11845,-15.15649 3.14777,-6.4847 3.72577,-12.76357 2.79313,-30.34203 -2.29039,-43.16933 -13.37567,-84.08693 -33.2483,-122.72497 -11.98733,-23.30678 -27.44296,-45.30193 -46.87659,-66.71085 l -6.59556,-7.26595 75.99872,-75.95692 75.99872,-75.956934 2.68283,3.068125 c 7.20716,8.242244 13.97062,20.670821 17.84916,32.799751 l 2.3944,7.487724 V 256.0419 443.52784 l -2.61111,7.971 c -4.97129,15.176 -11.87364,26.4899 -22.22175,36.4245 -10.08163,9.67877 -17.90319,14.42522 -32.74501,19.87107 l -8.00329,2.93661 -182.16988,0.0835 C 162.86325,510.86034 77.435163,510.63735 73.216492,510.31887 Z M 44.759774,467.70023 c 0.341367,-0.88959 0.125477,-0.94839 -1.09124,-0.29723 -0.83424,0.44648 -1.516801,1.13396 -1.516801,1.52774 0,1.05671 2.112896,0.0598 2.608041,-1.23051 z m 93.654356,-30.3451 c 13.48038,-4.50353 26.57323,-17.20973 31.14928,-30.22943 3.53426,-10.05561 3.34483,-25.94164 -0.42889,-35.9653 -1.10576,-2.9371 -3.7242,-7.86597 -5.81875,-10.95304 -2.09456,-3.08707 -3.80828,-5.94774 -3.80828,-6.35704 0,-0.40931 -0.44074,-0.74418 -0.97943,-0.74418 -0.53869,0 -2.86854,-1.43271 -5.17746,-3.1838 -4.9255,-3.73549 -13.20395,-7.7007 -19.15514,-9.1749 -6.80357,-1.68535 -19.2723,-1.32854 -26.07905,0.7463 -15.503251,4.72571 -28.618232,17.52843 -33.441847,32.64561 -1.674293,5.24722 -1.975748,7.60633 -1.967957,15.40076 0.01329,13.29941 2.709972,21.42681 10.490395,31.61652 2.553247,3.34388 2.585294,3.47505 1.320697,5.40507 l -1.296052,1.97802 1.938341,-1.27005 c 1.890578,-1.23875 2.041346,-1.1919 6.119374,1.90153 5.893944,4.47094 15.958749,9.044 21.657689,9.84043 7.1113,0.99381 20.065,0.15157 25.47708,-1.6565 z M 270.1582,419.66528 c 10.79193,-5.12506 17.37665,-14.07302 19.15033,-26.02332 1.73599,-11.69631 -2.2875,-38.66985 -8.58035,-57.52289 -6.87146,-20.5865 -19.543,-42.14777 -35.25363,-59.98579 -4.34687,-4.93549 -4.36167,-4.43256 0.28393,-9.64259 2.14331,-2.40371 2.00698,-2.35011 -1.61357,0.63443 l -3.95466,3.25996 -6.90322,-5.91474 c -30.70946,-26.31212 -65.3659,-40.24475 -103.33687,-41.54363 -10.27311,-0.35142 -13.05125,-0.20208 -16.86496,0.9066 -12.71041,3.69502 -21.795975,14.25759 -23.425279,27.23344 -1.647253,13.11881 2.750773,24.02526 12.724879,31.55578 5.63339,4.25325 10.52603,5.74393 24.89801,7.58585 15.21253,1.94966 20.92837,3.1173 28.40147,5.80193 12.52097,4.49801 26.04771,12.64683 32.74084,19.72384 2.17656,2.30138 4.47444,4.38275 5.1064,4.62526 2.10843,0.80908 12.58469,15.24124 16.50437,22.73653 5.08204,9.71796 9.08246,21.86291 10.42387,31.64596 0.59539,4.34221 1.61693,11.85132 2.27011,16.68692 1.75175,12.96854 6.00234,20.32465 15.12789,26.1805 6.62991,4.2544 10.77616,5.36381 19.07159,5.10299 6.56438,-0.2064 7.89046,-0.51184 13.22885,-3.04703 z m -2.49933,-175.09404 c 0.99081,-1.05467 1.62889,-1.91758 1.41796,-1.91758 -0.21093,0 -1.19418,0.86291 -2.18499,1.91758 -0.99081,1.05466 -1.62889,1.91757 -1.41796,1.91757 0.21094,0 1.19418,-0.86291 2.18499,-1.91757 z m 9.58023,-8.81286 c 3.10014,-3.23585 2.1129,-3.4817 -1.32598,-0.3302 -1.57437,1.44282 -2.4144,2.62329 -1.86673,2.62329 0.54769,0 1.9844,-1.03189 3.19271,-2.29309 z"
   id="path3916"
   inkscape:connector-curvature="0" /><path
   style="fill:#0000ff;fill-opacity:1;stroke-width:0.76703107"
   d="m 73.216492,510.34108 c -8.236061,-0.65633 -14.273535,-2.17765 -22.632046,-5.70282 -5.9392,-2.50483 -18.712825,-10.5301 -23.246699,-14.60515 l -2.157973,-1.9396 1.63493,-2.29604 c 1.791341,-2.5157 1.317127,-3.03489 -0.921537,-1.00893 -1.347212,1.21921 -1.586033,1.12815 -4.526341,-1.72582 C 15.147448,477.02597 9.0168581,466.3001 4.0521819,452.76964 L 1.1155704,444.76635 V 257.61077 70.45518 L 3.231295,62.884259 C 7.5691467,47.361666 14.661445,35.511904 26.42592,24.130846 37.085515,13.818657 45.568196,8.725486 60.560479,3.6357709 L 67.080244,1.4223828 H 256.15341 445.22657 l 6.13625,2.1318564 c 9.6318,3.3462819 22.45785,10.0564208 28.95542,15.1484548 3.26947,2.562229 5.94449,4.900457 5.94449,5.196062 0,0.295606 -34.10683,34.642989 -75.79296,76.327514 l -75.79294,75.79006 -6.85465,-6.24581 C 280.68407,126.81923 224.65863,100.21 163.29148,91.626765 c -16.25364,-2.27335 -36.15535,-3.36696 -43.80862,-2.407327 -8.51577,1.067791 -14.78,4.085859 -20.636868,9.942725 -7.627418,7.627417 -10.349581,16.166057 -9.045321,28.372557 1.314254,12.29998 11.103189,23.55266 23.314289,26.80047 1.6804,0.44694 7.71499,1.17637 13.41019,1.62097 45.67038,3.56524 70.2414,9.85048 101.63162,25.99727 18.49472,9.51348 35.37067,21.12617 50.94708,35.05773 l 7.65903,6.85024 -3.17616,3.24379 c -4.09724,4.1845 -3.3745,4.95578 1.02005,1.08857 l 3.37843,-2.97301 6.27772,6.99063 c 15.35498,17.09871 27.29893,34.66613 37.08581,54.54657 14.54035,29.53632 21.34003,55.59672 24.11616,92.42724 0.68367,9.07014 1.60666,17.86604 2.05108,19.54645 3.093,11.69484 13.80959,21.28009 26.20511,23.43868 14.51209,2.52717 28.65399,-4.51293 35.89793,-17.87066 l 2.59663,-4.78814 -0.0488,-19.17578 c -0.0501,-19.68252 -0.7067,-26.79026 -4.25151,-46.02187 -9.9465,-53.96249 -35.28728,-105.09338 -72.64808,-146.58432 -3.6619,-4.06671 -7.2426,-8.14829 -7.95711,-9.07018 -1.28451,-1.65731 -0.44537,-2.52934 74.64127,-77.56759 l 75.94036,-75.891434 2.71765,3.068125 c 7.07454,7.986905 13.89217,20.544976 17.80657,32.799751 l 2.39173,7.487724 V 256.0419 443.52784 l -2.61111,7.971 c -4.95777,15.13475 -11.72061,26.24025 -22.13101,36.34215 -9.92321,9.62916 -17.88617,14.46803 -32.83575,19.95342 l -8.00329,2.93661 -182.5534,0.0801 C 162.2688,510.85514 77.013296,510.64364 73.216492,510.34108 Z M 44.142188,468.04919 c 1.453352,-1.63685 1.451933,-1.64082 -0.264635,-0.74005 -0.949201,0.4981 -1.72582,1.23865 -1.72582,1.64567 0,1.08968 0.367161,0.92263 1.990455,-0.90562 z M 133.2797,438.53796 c 9.67264,-0.98038 24.09708,-11.01165 31.07724,-21.61225 5.61858,-8.53281 6.85328,-12.74985 7.24761,-24.75379 0.20469,-6.23099 -0.009,-12.09953 -0.53328,-14.62344 -1.06943,-5.15137 -4.30635,-12.13707 -8.45393,-18.24466 -1.71042,-2.5187 -3.10985,-4.94355 -3.10985,-5.38857 0,-0.44501 -0.46811,-0.80911 -1.04025,-0.80911 -0.57213,0 -2.55683,-1.14986 -4.41043,-2.55525 -8.17735,-6.2 -15.37961,-9.16579 -25.54319,-10.51831 -15.21429,-2.02464 -29.756089,2.99367 -41.217835,14.2241 -5.595921,5.48299 -9.228718,10.89477 -11.998715,17.87451 -1.893405,4.77093 -2.039956,5.98241 -2.059517,17.02541 -0.02555,14.42385 1.202759,18.84442 8.072122,29.05075 4.218817,6.26823 4.392695,6.70965 3.306088,8.3933 -1.137008,1.76174 -1.130949,1.76664 0.700399,0.56669 1.758872,-1.15245 2.009238,-1.08765 5.228751,1.35341 12.923957,9.79906 22.572617,12.06075 42.734787,10.01721 z m 136.94001,-18.94772 c 15.26156,-7.54267 20.98889,-20.14631 18.96014,-41.72397 -3.59533,-38.23969 -16.22207,-68.68253 -40.62083,-97.93607 -7.57898,-9.08703 -7.36862,-8.22195 -3.18241,-13.08716 1.5874,-1.84487 1.3413,-1.73648 -1.30615,0.57528 -1.79416,1.56665 -3.42513,2.84846 -3.6244,2.84846 -0.19928,0 -3.90879,-2.96841 -8.24338,-6.59646 -24.30585,-20.34404 -49.80413,-32.81622 -78.06441,-38.1843 -9.63449,-1.83009 -23.29297,-2.96206 -32.00447,-2.65243 -7.34993,0.26124 -8.83842,0.56372 -13.44866,2.73288 -6.88396,3.23896 -12.967476,9.0781 -16.113669,15.46635 -2.410947,4.89535 -2.480295,5.31547 -2.480295,15.02573 0,9.55224 0.09958,10.1863 2.274792,14.48371 4.018545,7.93917 11.817142,14.54384 20.352622,17.23676 1.47654,0.46584 8.37982,1.56465 15.34062,2.4418 6.96081,0.87715 14.76561,2.08034 17.344,2.67376 27.55032,6.34071 52.92141,26.48264 65.69875,52.15773 5.91451,11.88476 8.39688,20.83557 10.54269,38.01435 0.86631,6.93534 2.10346,14.46284 2.74924,16.72778 2.81236,9.8639 10.41402,17.64339 21.1341,21.62852 3.33746,1.24068 5.5049,1.47229 11.58405,1.23783 6.74599,-0.26017 8.02973,-0.56089 13.10767,-3.07055 z m -2.56084,-175.019 c 0.99081,-1.05467 1.62889,-1.91758 1.41796,-1.91758 -0.21093,0 -1.19418,0.86291 -2.18499,1.91758 -0.99081,1.05466 -1.62889,1.91757 -1.41796,1.91757 0.21094,0 1.19418,-0.86291 2.18499,-1.91757 z"
   id="path3918"
   inkscape:connector-curvature="0" /><path
   style="fill:#0000ff;fill-opacity:1;stroke-width:0.76703107"
   d="m 73.216492,510.33718 c -8.231387,-0.6513 -14.267734,-2.1713 -22.632046,-5.69892 -5.966681,-2.51642 -18.709552,-10.52948 -23.302861,-14.65346 l -2.214136,-1.9879 1.661825,-2.24774 c 1.827923,-2.4724 1.390154,-2.97535 -0.836107,-0.96062 -1.347212,1.21921 -1.586033,1.12815 -4.526341,-1.72582 C 14.853485,476.74063 7.9299673,464.21351 3.0987524,450.00922 L 0.70781042,442.9796 0.91209964,255.95036 1.1163888,68.921118 3.2689073,62.017839 C 6.1323201,52.834671 11.983455,40.931356 16.653757,34.788235 22.068635,27.66573 33.389196,17.169223 40.304464,12.859126 47.136862,8.6006793 57.937909,4.0675693 65.604447,2.2409322 70.477861,1.0797877 86.365653,0.99394573 258.4545,1.1989611 l 187.5391,0.2234217 7.51462,2.8563011 c 4.13304,1.5709657 10.3334,4.3227908 13.77857,6.1151661 6.10123,3.174208 17.45946,11.055734 18.6059,12.910721 0.37029,0.599135 -26.11419,27.611099 -75.25244,76.751239 -66.0569,66.05941 -75.98855,75.70576 -77.10267,74.88764 -0.70336,-0.51649 -4.68227,-4.00733 -8.84202,-7.75741 C 272.83579,120.43358 206.8536,92.844442 138.55828,89.356437 c -13.89401,-0.709603 -22.41568,-0.07097 -28.14078,2.108929 -8.41201,3.202969 -16.086391,10.883944 -19.242386,19.258944 -1.334749,3.54199 -1.54918,5.57553 -1.336843,12.67782 0.230761,7.71857 0.470136,8.8999 2.734174,13.49364 3.117452,6.32531 9.028005,12.2952 15.089845,15.24132 5.05577,2.45716 7.87452,2.89725 32.02748,5.00047 21.42216,1.86543 40.47232,5.61906 57.01873,11.23494 29.06333,9.86413 57.86338,26.84497 82.56206,48.67953 l 7.59436,6.71369 -2.84166,2.91012 c -1.56292,1.60057 -2.62914,3.12266 -2.36938,3.38242 0.25976,0.25976 0.9244,-0.25165 1.47698,-1.13647 0.55257,-0.88481 1.32592,-1.60875 1.71857,-1.60875 0.39263,0 1.26375,-0.49763 1.93581,-1.10583 1.08943,-0.98593 1.91634,-0.32212 7.62614,6.12197 14.72609,16.61989 26.16306,33.10518 35.16134,50.68171 15.65417,30.57756 22.90665,57.39546 25.90514,95.79079 1.43806,18.41405 1.99551,21.52607 4.76865,26.62124 2.707,4.97365 9.98389,11.75111 15.1627,14.12204 8.42753,3.85826 19.9712,3.8658 28.37472,0.0186 5.61063,-2.56863 12.61336,-9.32398 15.84806,-15.2882 2.58197,-4.76069 2.58381,-4.77177 2.84865,-17.03629 0.90898,-42.09576 -10.61337,-90.95703 -31.09244,-131.84948 -12.54276,-25.0453 -28.60074,-48.36284 -48.34824,-70.20575 l -7.22926,-7.99637 76.04008,-75.99353 76.0401,-75.993538 2.73986,3.068124 c 7.00403,7.843171 13.2561,19.252483 17.57087,32.06487 l 2.60612,7.738634 v 188.08119 188.08119 l -2.74211,7.87786 c -5.35394,15.3815 -11.77079,25.80267 -22.00001,35.72876 -10.21604,9.91331 -20.14838,15.75177 -35.60797,20.93121 l -6.99142,2.34234 L 261.793,510.99897 C 161.87272,510.93541 77.013296,510.6376 73.216492,510.33718 Z M 43.700368,468.52676 c 0.810587,-0.9767 0.763133,-1.08894 -0.289596,-0.68497 -0.692471,0.26572 -1.259039,0.79137 -1.259039,1.1681 0,0.98638 0.444014,0.84785 1.548635,-0.48313 z M 138.07497,437.2592 c 12.06702,-4.11381 23.58271,-14.11863 29.04694,-25.23597 3.74537,-7.62022 4.65808,-12.03869 4.65808,-22.55006 0,-12.48456 -2.29184,-20.05162 -9.11704,-30.10218 -1.7355,-2.55564 -3.15546,-5.01072 -3.15546,-5.45574 0,-0.44501 -0.37811,-0.80911 -0.84024,-0.80911 -0.46213,0 -3.82747,-1.99585 -7.47855,-4.43522 -16.04315,-10.7188 -35.3814,-11.97676 -51.893151,-3.37568 -7.425582,3.86803 -17.516305,13.96042 -21.317312,21.32083 -4.243245,8.21677 -5.385389,14.15996 -4.921395,25.60865 0.468201,11.55251 2.257362,17.08563 8.5542,26.45456 3.28817,4.8924 3.96677,6.41224 3.365026,7.53661 -0.655052,1.22398 -0.562264,1.3059 0.708714,0.6257 1.175107,-0.6289 2.203826,-0.25148 5.235524,1.92083 6.020266,4.31374 9.940094,6.43971 15.475414,8.39333 4.5062,1.59041 6.55531,1.82505 15.91076,1.82189 9.09817,-0.003 11.50676,-0.26556 15.76849,-1.71844 z m 127.18701,-15.79832 c 6.58691,-2.05008 10.73727,-4.70346 15.63973,-9.9987 7.27197,-7.8546 9.67258,-17.48556 8.23652,-33.04402 -3.52164,-38.1539 -14.93282,-66.41849 -38.93652,-96.4427 -3.11474,-3.89596 -5.98187,-7.28053 -6.37138,-7.52127 -0.38951,-0.24073 -1.05878,-1.09274 -1.48725,-1.89336 -0.62687,-1.17132 -0.29812,-2.02449 1.683,-4.36771 l 2.46206,-2.91204 -2.68244,2.49285 c -1.47534,1.37107 -2.93628,2.49285 -3.24653,2.49285 -0.31026,0 -4.09063,-2.97021 -8.40083,-6.60045 -22.27279,-18.75916 -49.39686,-32.26347 -75.33546,-37.50739 -12.13445,-2.45318 -25.69898,-3.71725 -35.30484,-3.29003 -6.69553,0.29778 -8.49721,0.68188 -12.93121,2.7568 -6.46679,3.02617 -13.169965,9.57988 -16.239524,15.8774 -2.127069,4.36391 -2.243543,5.11845 -2.249671,14.57359 -0.0061,9.48746 0.0997,10.17308 2.180838,14.12667 2.666537,5.06569 8.911777,11.80832 13.341987,14.4046 4.84065,2.83681 8.61593,3.76313 22.92833,5.62583 16.83942,2.19159 25.43048,4.41791 35.37019,9.16601 21.23017,10.14143 37.38739,25.91253 47.55599,46.41953 5.64962,11.39356 7.90442,19.54863 10.17969,36.81749 1.96349,14.90237 2.62093,17.99952 4.69503,22.118 7.09876,14.09576 23.99376,21.34922 38.91229,16.70605 z m 2.78041,-177.27316 c 0.76357,-0.84373 1.21573,-1.53406 1.00479,-1.53406 -0.21093,0 -1.00825,0.69033 -1.77182,1.53406 -0.76357,0.84374 -1.21573,1.53406 -1.0048,1.53406 0.21094,0 1.00826,-0.69032 1.77183,-1.53406 z"
   id="path3920"
   inkscape:connector-curvature="0" /><path
   style="fill:#0000ff;fill-opacity:1;stroke-width:0.76703107"
   d="m 73.216492,510.33718 c -8.231387,-0.6513 -14.267734,-2.1713 -22.632046,-5.69892 -5.69968,-2.40382 -17.896641,-10.0125 -23.3646,-14.57524 l -2.275874,-1.89911 1.723564,-2.33124 c 1.87987,-2.54267 1.480301,-3.08457 -0.77167,-1.04657 -1.341803,1.21431 -1.569756,1.14079 -4.161961,-1.34231 C 15.11956,477.10784 9.2525575,466.84407 3.8878936,452.22387 L 0.71385708,443.57375 0.91471368,255.86391 1.1155704,68.154087 4.0092989,59.757925 C 9.4527097,43.963851 15.499447,34.518446 27.443524,23.152107 38.111143,13.000484 50.192695,6.240976 64.250778,2.5588157 69.959246,1.0636263 73.095369,1.0388673 256.776,1.0388673 h 186.72222 l 7.88352,2.6379899 c 12.62028,4.2230082 24.3758,10.6343278 32.19638,17.5595068 l 3.06813,2.716847 -34.89992,35.057661 C 411.417,99.522491 373.72983,137.22337 350.70071,160.09323 l -16.1145,16.00307 -7.57637,-6.88169 c -42.21851,-38.34752 -92.54086,-63.9563 -146.409,-74.506758 -18.35019,-3.594016 -28.26475,-4.727136 -45.63835,-5.215934 -17.44188,-0.490724 -22.40848,0.215321 -29.12827,4.14084 -4.95963,2.897284 -10.768203,9.138682 -13.44195,14.443592 -2.190549,4.34622 -2.301094,5.02613 -2.301094,14.15343 0,8.81035 0.167696,9.94572 2.067832,14.00034 2.363905,5.04426 8.728082,12.1405 13.280952,14.80866 4.71956,2.76585 10.91657,4.01043 26.45441,5.31301 7.80454,0.65427 18.13446,1.72143 22.95537,2.37145 45.89518,6.18821 86.96457,25.42433 124.38698,58.2605 l 7.664,6.72475 -1.79721,1.99403 c -3.68522,4.08879 -3.91687,4.95035 -0.57285,2.13056 l 3.44875,-2.90809 2.90354,3.30335 c 19.05067,21.67393 28.84402,35.54555 38.71423,54.83612 15.74817,30.77855 22.84289,56.94223 25.88993,95.4761 1.39652,17.66065 2.18498,22.06302 4.83147,26.9764 2.58556,4.80027 9.63399,11.29059 15.26341,14.05485 4.16771,2.04649 5.04898,2.18361 14.03483,2.18361 9.04507,0 9.84844,-0.12728 14.19007,-2.24829 6.05804,-2.9595 13.59496,-10.488 16.3177,-16.29949 l 2.09105,-4.46316 -0.051,-17.64171 c -0.0562,-19.41759 -1.16726,-30.50531 -4.99609,-49.85702 -10.96422,-55.4153 -36.46738,-105.00395 -76.35879,-148.47288 l -5.06513,-5.51938 76.07313,-76.02657 76.07313,-76.026574 2.74072,3.068125 c 7.1766,8.033878 13.7718,20.148126 17.93923,32.951246 l 2.2369,6.872189 V 256.16314 444.23437 l -2.74211,7.87786 c -5.08167,14.59927 -10.39717,23.65288 -19.50044,33.21405 -10.43414,10.95899 -20.09778,17.06258 -35.99081,22.73195 l -8.56783,3.05631 -181.94338,-0.11557 C 161.9943,510.93541 77.013296,510.6376 73.216492,510.33718 Z M 43.783634,468.35256 c 0.954088,-1.21656 0.926958,-1.24369 -0.289596,-0.2896 -1.277681,1.00202 -1.684001,1.6319 -1.052708,1.6319 0.159278,0 0.763315,-0.60404 1.342304,-1.3423 z m 95.892896,-31.53241 c 13.22938,-5.16928 25.04736,-17.17769 29.97439,-30.45739 1.46491,-3.94835 1.69199,-6.1226 1.71687,-16.43913 0.0342,-14.1778 -1.04606,-18.22385 -7.69182,-28.80932 -2.29267,-3.65179 -4.16848,-6.94755 -4.16848,-7.3239 0,-0.37635 -0.41646,-0.68427 -0.92547,-0.68427 -0.509,0 -2.92688,-1.40392 -5.37305,-3.11981 -5.78575,-4.05847 -14.40569,-7.98733 -20.06537,-9.14553 -9.71262,-1.9876 -22.39816,-0.72572 -31.01289,3.08499 -13.461118,5.9545 -26.050614,21.34991 -28.477901,34.825 -2.677855,14.86613 0.408126,29.2149 8.866697,41.22713 2.82114,4.00637 3.169096,4.90767 2.430177,6.2948 -0.769701,1.44494 -0.728488,1.50849 0.383492,0.59133 1.077786,-0.88896 2.103752,-0.4593 7.604131,3.18453 11.809164,7.8232 15.907714,8.97515 30.903234,8.68575 9.69788,-0.18717 12.18583,-0.4879 15.83599,-1.91418 z m 124.56131,-15.10462 c 11.00817,-2.86651 19.70977,-11.00635 23.3944,-21.8841 3.01543,-8.90213 1.89157,-28.51063 -2.76598,-48.25936 -6.10489,-25.88571 -18.21932,-49.65741 -36.69166,-71.99873 -3.61603,-4.3734 -6.35522,-8.34279 -6.08707,-8.82085 0.26815,-0.47808 1.21155,-1.73214 2.09646,-2.78681 1.45095,-1.7293 1.37915,-1.71047 -0.73135,0.19176 -1.28716,1.16014 -2.58476,2.10934 -2.88357,2.10934 -0.29881,0 -4.28249,-3.097 -8.85262,-6.8822 -31.97141,-26.48034 -67.3315,-40.05379 -104.80778,-40.23189 -10.78551,-0.0512 -12.74593,0.13635 -16.17981,1.54836 -5.85383,2.40709 -10.731592,6.07058 -14.540623,10.92091 -5.007831,6.37682 -6.10345,10.21079 -6.064493,21.22177 0.0303,8.56885 0.182109,9.4928 2.198457,13.38167 2.765914,5.33454 9.360949,12.25797 14.169569,14.87515 4.20164,2.28682 10.42016,3.66119 25.01908,5.52952 18.97248,2.42805 32.42583,7.25759 46.72307,16.77284 8.38717,5.58192 20.58074,17.71302 25.89311,25.76042 10.60876,16.07063 14.60907,27.36315 17.52572,49.4735 2.0245,15.34727 2.60391,17.95824 5.06137,22.80782 3.68828,7.27846 13.28609,14.67455 21.5804,16.62988 4.56166,1.07538 10.99086,0.93062 15.94332,-0.359 z m 3.51887,-177.33605 c 0.95409,-1.21656 0.92696,-1.24369 -0.2896,-0.2896 -1.27768,1.00203 -1.684,1.6319 -1.0527,1.6319 0.15927,0 0.76331,-0.60403 1.3423,-1.3423 z"
   id="path3922"
   inkscape:connector-curvature="0" /><path
   style="fill:#0000ff;fill-opacity:1;stroke-width:0.76703107"
   d="M 73.216492,510.35104 C 61.686134,509.46186 50.218846,505.60937 40.174113,499.25031 33.648932,495.11939 25.27705,488.69681 25.27705,487.82188 c 0,-0.41142 0.571241,-1.37924 1.269427,-2.15073 1.38913,-1.53497 0.373905,-1.97219 -1.117165,-0.48112 -0.717421,0.71742 -1.617569,0.25014 -4.063276,-2.10933 C 14.896215,476.839 8.1559332,464.72802 3.0937511,450.24893 L 0.7198601,443.45902 0.91771523,255.80655 1.1155704,68.154087 3.6898002,60.483776 C 8.8829129,45.010104 15.474737,34.577838 27.082177,23.462842 37.942758,13.06302 50.330479,6.0721035 64.170195,2.5325004 69.879153,1.0723949 74.20842,1.0388673 257.03634,1.0388673 h 187.02611 l 5.95127,2.0050264 c 12.64144,4.2589882 25.84407,11.4028893 33.5644,18.1615903 l 3.06813,2.685967 -18.79226,19.120891 c -10.33575,10.516491 -44.41636,44.809642 -75.7347,76.207008 -44.22711,44.33872 -57.18244,56.91484 -58.01727,56.31909 -0.59117,-0.42187 -4.47859,-3.83689 -8.63873,-7.58895 -53.64083,-48.37902 -121.58154,-76.306426 -190.88431,-78.464046 -9.7323,-0.303 -15.93009,-0.161759 -18.657,0.425188 -9.64378,2.075725 -18.212965,8.681281 -23.204275,17.887008 -2.592242,4.78102 -2.626529,4.96941 -2.626529,14.43214 0,9.04507 0.127281,9.84844 2.248283,14.19007 2.692763,5.51202 10.133471,13.2151 15.036721,15.56692 4.64193,2.22649 8.73957,2.93289 25.4042,4.3795 50.06144,4.34572 81.15665,14.50921 117.23678,38.31894 16.83809,11.11168 37.12829,27.85727 36.31666,29.97233 -0.29351,0.76488 -0.0771,1.00074 0.65891,0.71829 0.70735,-0.27144 3.3025,2.10504 7.31954,6.70283 17.54127,20.07713 27.82537,35.37518 38.04722,56.59686 14.0417,29.15211 20.07838,52.48997 23.11406,89.35913 1.40685,17.08655 2.10973,21.46662 4.20485,26.20297 2.06562,4.66969 10.22538,12.55198 15.84294,15.30421 4.23531,2.07502 5.08675,2.20843 14.09548,2.20843 9.0252,0 9.8545,-0.1306 14.13099,-2.22522 5.88405,-2.88203 13.33993,-10.33673 16.23443,-16.23186 l 2.2334,-4.5487 -0.0989,-17.25819 c -0.0544,-9.49201 -0.50599,-20.70984 -1.00348,-24.92851 -3.81314,-32.33501 -12.21831,-62.72004 -25.43342,-91.94295 -12.99198,-28.72948 -34.39491,-60.37882 -56.20801,-83.11696 l -3.84876,-4.01197 11.081,-11.32609 c 6.09455,-6.22935 23.85206,-24.04084 39.46115,-39.5811 15.60908,-15.54024 44.8832,-44.70776 65.0536,-64.816682 l 36.67346,-36.561682 3.03708,3.377318 c 6.83452,7.600193 13.53554,19.921334 17.60163,32.364032 l 2.27678,6.967213 V 256.07164 444.23437 l -2.75545,7.9363 c -5.47335,15.76448 -12.08395,26.30243 -23.02323,36.70133 -9.58411,9.11066 -18.63262,14.42164 -33.22363,19.50043 l -7.87786,2.74211 -181.9039,-0.11557 C 161.97652,510.93541 77.013296,510.64383 73.216492,510.35104 Z M 43.783634,468.35256 c 0.954088,-1.21656 0.926958,-1.24369 -0.289596,-0.2896 -1.277681,1.00202 -1.684001,1.6319 -1.052708,1.6319 0.159278,0 0.763315,-0.60404 1.342304,-1.3423 z m 96.306856,-31.84384 c 13.42883,-5.51823 25.15195,-17.56649 29.51286,-30.33137 1.50438,-4.40349 1.75602,-6.71015 1.77316,-16.25372 0.0242,-13.46401 -1.40428,-18.78054 -7.77037,-28.92055 -2.25426,-3.59062 -4.09865,-6.83632 -4.09865,-7.21267 0,-0.37635 -0.41646,-0.68427 -0.92547,-0.68427 -0.509,0 -2.90841,-1.39096 -5.332,-3.09101 -5.63227,-3.95082 -12.72965,-7.25458 -19.03477,-8.8605 -6.81524,-1.73587 -20.60886,-1.17242 -27.79088,1.13521 -13.201904,4.24185 -26.705517,17.6223 -31.256813,30.97174 -2.053107,6.02198 -2.818044,17.49238 -1.659877,24.89024 1.190348,7.60341 3.276842,12.80539 8.126511,20.26078 3.492959,5.36971 3.996615,6.58105 3.288853,7.9099 -0.758027,1.42322 -0.713608,1.46839 0.477545,0.4856 1.163732,-0.96016 1.811935,-0.73192 5.691356,2.00392 2.407925,1.69811 6.541617,4.17965 9.185985,5.51452 8.09325,4.08546 11.53569,4.71936 23.94613,4.4095 9.77658,-0.2441 11.69587,-0.51353 15.86643,-2.22732 z m 122.1071,-14.35233 c 9.94301,-1.88565 19.03613,-8.88671 23.6393,-18.20058 2.73858,-5.54116 2.86401,-6.14621 3.1682,-15.28336 0.35473,-10.65504 -0.60947,-20.05888 -3.44875,-33.636 -5.59519,-26.75552 -18.21115,-52.21455 -37.39497,-75.46311 -3.60876,-4.3734 -6.34084,-8.34279 -6.07128,-8.82085 0.26955,-0.47808 1.03916,-1.55956 1.71024,-2.40329 0.80771,-1.01551 0.49735,-0.89455 -0.91817,0.35785 -1.5171,1.34227 -2.43921,1.67652 -3.17402,1.15055 -0.56964,-0.40776 -4.78239,-3.79372 -9.36166,-7.52439 -22.79804,-18.57316 -47.9533,-30.87184 -73.90711,-36.13397 -12.89613,-2.61469 -32.49268,-4.05051 -39.48005,-2.89267 -10.70905,1.77455 -19.817448,8.62581 -24.353041,18.31816 -2.303226,4.92188 -2.438822,5.71238 -2.475409,14.43172 -0.03521,8.38128 0.143374,9.61031 1.9529,13.4433 2.437233,5.16261 7.890019,11.32382 12.77084,14.43003 4.90401,3.12097 9.58942,4.31741 25.88921,6.61096 16.8512,2.37113 22.96739,4.01152 33.30002,8.93118 11.37426,5.41561 19.63098,11.18479 28.24046,19.73233 8.91817,8.854 14.1729,16.28037 19.78018,27.95475 5.12139,10.66277 7.39456,19.17854 9.93717,37.22683 2.16796,15.38885 3.6645,20.35351 7.63601,25.33178 8.23754,10.32571 20.00251,14.82025 32.55993,12.43878 z m 21.66678,-193.88456 c 0.95408,-1.21656 0.92695,-1.24369 -0.2896,-0.2896 -1.27768,1.00202 -1.684,1.6319 -1.05271,1.6319 0.15928,0 0.76331,-0.60404 1.34231,-1.3423 z"
   id="path3924"
   inkscape:connector-curvature="0" /><path
   style="fill:#0000ff;fill-opacity:1;stroke-width:0.76703107"
   d="m 72.389182,510.30022 c -13.647793,-1.05211 -27.486129,-6.84373 -41.43167,-17.34 -3.124255,-2.3515 -5.680462,-4.63791 -5.680462,-5.08091 0,-0.443 0.571241,-1.43667 1.269427,-2.20816 1.38913,-1.53497 0.373905,-1.97219 -1.117165,-0.48112 -0.717421,0.71742 -1.617569,0.25014 -4.063276,-2.10933 C 14.90065,476.84328 8.722427,465.91666 3.682088,451.80538 L 0.71688233,443.50379 0.91622634,255.44542 1.1155704,67.387056 3.881479,59.716745 C 9.4759676,44.202325 15.02377,35.256108 25.401174,25.014739 35.907507,14.646129 45.3527,8.7382862 59.087478,3.9444003 L 66.313213,1.4223828 255.54767,1.2230804 444.78212,1.0237781 l 7.89254,2.9669001 c 13.41127,5.0414629 26.95374,12.7125578 32.08486,18.1743848 l 1.81426,1.931187 -8.39536,8.605875 C 456.87224,54.542548 335.47663,175.92195 334.93947,175.92195 c -0.33271,0 -4.13025,-3.16332 -8.43897,-7.02959 C 279.40958,126.63708 224.56993,100.61194 164.49319,92.008877 145.98926,89.359091 123.3887,88.475141 115.63271,90.097849 106.323,92.045633 96.337187,100.07929 92.16904,108.97455 c -1.903847,4.06301 -2.075739,5.20521 -2.05249,13.63874 0.02355,8.54219 0.183826,9.53122 2.227803,13.74748 2.664252,5.49574 10.184527,13.25651 15.071827,15.55381 4.54288,2.13541 9.61679,3.00602 26.01225,4.46335 26.91972,2.3928 44.22148,5.65731 62.89655,11.86735 20.17802,6.70982 38.06219,15.71661 57.52038,28.96832 15.83054,10.78115 33.23453,25.49972 32.47931,27.46778 -0.28826,0.75123 -0.0604,0.974 0.69829,0.68285 1.35877,-0.52141 13.1175,12.75461 22.6809,25.60751 11.97032,16.08774 22.61382,35.31687 30.0967,54.37435 8.94878,22.79084 13.14089,42.18105 15.71505,72.68856 0.67633,8.01547 1.72078,16.98424 2.321,19.93061 1.84047,9.0345 8.73136,17.12498 18.47251,21.68828 4.07552,1.9092 5.29546,2.10188 13.3077,2.10188 8.29307,0 9.12423,-0.14375 13.89123,-2.40244 5.66203,-2.68279 12.41559,-8.90194 15.63802,-14.40059 3.05964,-5.22089 3.55768,-11.06412 2.70536,-31.7408 -1.16228,-28.19559 -5.02429,-49.4546 -13.93482,-76.70615 -13.77986,-42.1437 -34.59028,-77.61395 -65.63605,-111.87314 -3.49575,-3.85759 -6.35592,-7.36421 -6.35592,-7.79251 0,-1.20042 151.30986,-151.314737 152.22052,-151.017776 1.66777,0.543849 8.95125,10.38381 12.59814,17.020047 2.0865,3.796804 5.11827,10.35492 6.73728,14.573591 l 2.94363,7.670311 0.19783,189.436547 0.19784,189.43656 -2.4162,7.30692 c -5.1466,15.56409 -12.0802,26.7676 -23.07976,37.2929 -9.82438,9.4008 -18.73366,14.66728 -33.5185,19.81354 l -7.87786,2.74211 -181.9039,-0.10918 C 161.97652,510.9453 76.64101,510.628 72.389182,510.30022 Z m 66.707008,-73.49003 c 6.48132,-2.28232 13.42082,-7.07401 19.47473,-13.44721 10.22648,-10.76581 12.78004,-17.6321 12.72127,-34.20638 -0.0468,-13.18679 -1.3266,-17.81415 -7.81327,-28.24915 -2.18429,-3.51382 -3.97143,-6.70658 -3.97143,-7.09504 0,-0.38845 -0.41361,-0.70627 -0.91915,-0.70627 -0.50553,0 -3.25415,-1.56663 -6.10805,-3.48138 -11.05238,-7.41534 -19.7167,-9.90918 -32.4749,-9.34718 -13.68869,0.60298 -22.95952,4.67839 -32.621289,14.34015 -9.006563,9.00657 -13.436863,18.48593 -14.260518,30.51275 -0.888007,12.96649 1.556763,22.64567 8.322202,32.94876 2.158709,3.2875 3.88614,6.58877 3.83873,7.33615 -0.0474,0.74739 0.256234,1.14725 0.674765,0.88858 0.41853,-0.25866 3.417829,1.27004 6.665101,3.39711 6.892081,4.51456 13.265169,7.5523 17.928339,8.54558 1.82403,0.38853 7.97613,0.58217 13.67134,0.43031 7.98469,-0.2129 11.3889,-0.64021 14.87213,-1.86678 z m 122.82999,-14.73988 c 12.41968,-2.2959 22.77342,-11.84898 26.07955,-24.0628 2.80654,-10.36821 0.10633,-36.58963 -5.79214,-56.24685 -6.46967,-21.56083 -16.84513,-40.61204 -33.2791,-61.10642 -4.04507,-5.04452 -7.35996,-9.53165 -7.36642,-9.97141 -0.006,-0.43976 -0.34634,-0.28182 -0.75529,0.35098 -0.46652,0.72189 -0.74791,0.80358 -0.75528,0.21926 -0.0177,-1.39769 -16.10868,-14.29091 -25.70729,-20.59839 -27.90537,-18.33732 -56.38866,-27.20642 -88.20857,-27.46634 l -11.50547,-0.094 -5.80293,2.77133 c -7.09798,3.38981 -12.688915,8.75517 -15.974278,15.32976 -2.304737,4.61218 -2.38427,5.10765 -2.38427,14.85315 0,9.21146 0.164681,10.40934 1.907591,13.87581 3.729635,7.41786 10.591867,13.85911 17.745297,16.65663 1.73893,0.68005 10.21745,2.29659 18.84113,3.59232 19.31848,2.90263 24.73798,4.36239 35.71889,9.62099 11.17317,5.35069 18.73576,10.63426 27.45153,19.17889 15.16644,14.86863 25.1678,34.3763 28.36944,55.33462 4.63497,30.3411 5.0881,31.75029 12.47502,38.79621 8.58619,8.18983 17.76328,11.03284 28.94259,8.96623 z m 21.93819,-193.79848 c 0.95408,-1.21656 0.92695,-1.24369 -0.2896,-0.2896 -1.27768,1.00202 -1.684,1.6319 -1.05271,1.6319 0.15928,0 0.76331,-0.60404 1.34231,-1.3423 z"
   id="path3926"
   inkscape:connector-curvature="0" /><path
   style="fill:#0000ff;fill-opacity:1;stroke-width:0.76703107"
   d="m 72.357971,510.29826 c -9.027972,-0.69545 -18.952881,-3.71372 -27.92043,-8.4909 -6.588998,-3.51008 -19.160491,-12.62184 -19.160491,-13.88743 0,-0.46535 0.571241,-1.47729 1.269427,-2.24878 1.38913,-1.53497 0.373905,-1.97219 -1.117165,-0.48112 -0.717421,0.71742 -1.617569,0.25014 -4.063276,-2.10933 C 14.980306,476.92013 8.4957931,465.47535 3.5064417,451.55959 L 0.71687888,443.77924 0.91622466,255.19963 1.1155704,66.620025 3.8956741,59.315903 C 9.9837107,43.320902 15.367171,34.776625 25.795388,24.558104 36.328614,14.236686 45.797494,8.4821975 60.15128,3.6791208 L 68.041563,1.0388673 H 256.4758 444.91005 l 7.44505,2.7808581 c 13.1806,4.9231798 27.30217,12.9142366 32.38745,18.3272776 l 1.79729,1.913126 -2.22929,2.487687 c -1.22611,1.368227 -5.68314,6.025617 -9.9045,10.349754 -4.22136,4.324138 -7.341,7.862069 -6.93254,7.862069 0.40846,0 5.12694,-4.374544 10.4855,-9.721208 11.21951,-11.194604 9.79623,-11.051298 16.75635,-1.687169 5.00859,6.738559 10.36307,17.258943 13.74292,27.001872 l 2.34945,6.772638 V 255.60359 444.08141 l -2.62741,7.80189 c -4.99859,14.84289 -10.158,23.58838 -19.90932,33.74744 -10.47286,10.91075 -20.00846,16.88578 -36.23009,22.70182 l -7.75925,2.78198 -182.08094,-0.10918 C 162.0562,510.9453 76.626958,510.62711 72.357971,510.29826 Z m 59.439459,-72.00694 c 15.09921,-1.74849 32.37527,-16.50886 37.65042,-32.16789 1.29762,-3.85192 1.56355,-6.58366 1.556,-15.98384 -0.0121,-15.08821 -1.18732,-19.18775 -9.07803,-31.6674 -2.57085,-4.06597 -4.02987,-5.36579 -10.66934,-9.50518 -9.60684,-5.98941 -15.94311,-8.14653 -25.52689,-8.69037 C 108.69524,339.31 94.38,345.6084 83.703756,358.7671 c -8.669167,10.68494 -12.09654,23.24505 -10.248862,37.55848 1.1157,8.64301 3.131534,14.05058 8.244195,22.11548 2.416532,3.81194 4.035688,7.13533 3.722893,7.64145 -0.353786,0.57244 -0.219425,0.68915 0.372363,0.32339 0.545735,-0.33727 3.350123,1.01631 6.830036,3.29664 13.093259,8.57977 22.133729,10.56192 39.173049,8.58878 z M 267.30449,420.5281 c 8.71879,-3.26212 16.39651,-10.78144 19.72127,-19.31439 4.46159,-11.45065 1.48251,-40.05547 -6.75646,-64.87481 -6.32939,-19.06685 -16.84723,-37.68672 -31.64015,-56.01295 -3.87713,-4.8032 -7.04933,-9.08898 -7.04933,-9.52397 0,-0.43498 -0.20818,-0.5827 -0.46262,-0.32826 -0.25444,0.25444 -3.4514,-2.01789 -7.10435,-5.04962 -23.59217,-19.58011 -45.88682,-31.34734 -71.37727,-37.67327 -10.46556,-2.59723 -16.23109,-3.45609 -28.25252,-4.20862 -13.71656,-0.85865 -20.8127,-0.1569 -26.22528,2.59345 -5.37923,2.73341 -12.230464,9.28588 -15.066699,14.40967 -2.105025,3.80282 -2.243374,4.6121 -2.496732,14.60473 -0.259172,10.22179 -0.197833,10.7227 1.817342,14.84158 2.614256,5.34334 9.544089,12.50002 14.562519,15.0392 4.17474,2.11229 11.10071,3.64857 25.30368,5.61268 13.6231,1.88392 22.56136,4.39822 32.32384,9.09255 11.29071,5.42921 18.83097,10.69897 27.52561,19.23718 10.0048,9.8248 16.82245,19.94184 22.25407,33.0239 3.53132,8.50516 5.35716,16.08999 7.65265,31.79023 2.8527,19.51138 4.38968,23.42171 11.83827,30.11864 4.47158,4.02033 10.35526,7.15147 15.41254,8.20214 4.67131,0.97049 13.20191,0.22247 18.01962,-1.58006 z m 136.5297,-1.42242 c 5.61784,-2.75483 12.97124,-9.96257 15.87201,-15.55763 2.09264,-4.03632 2.09275,-4.03744 2.10934,-21.02171 0.0185,-18.94798 -0.67333,-27.68689 -3.48284,-43.9938 -9.80532,-56.91195 -35.24613,-108.58441 -75.44838,-153.24211 -4.28973,-4.76515 -6.93787,-8.31896 -6.68668,-8.97355 0.26576,-0.69256 0.0384,-0.93896 -0.62985,-0.68254 -0.60754,0.23314 -5.28495,-3.32348 -11.16232,-8.48765 C 268.98929,118.45525 204.31424,92.008486 134.57898,89.523312 120.15939,89.00944 114.98658,89.630727 108.33661,92.675189 102.74004,95.23738 94.887,103.15812 92.205099,108.94577 c -1.883806,4.06533 -2.063974,5.25702 -2.021273,13.36956 0.04341,8.24639 0.217492,9.26955 2.349255,13.80656 2.88103,6.1317 9.745449,13.24016 15.194699,15.73491 5.05587,2.31465 9.03942,3.01094 25.70065,4.49224 49.89518,4.43602 82.38394,15.29017 118.88982,39.71979 14.98286,10.02649 34.94669,26.71544 34.22076,28.60718 -0.2362,0.61552 0.003,0.87265 0.59978,0.64377 1.1734,-0.45027 11.78263,11.43431 20.99716,23.52126 9.27865,12.17104 15.51543,22.30447 23.11094,37.55032 13.71155,27.52206 20.41517,51.31783 23.44607,83.22625 3.13525,33.00698 3.79969,35.47372 11.56492,42.93486 7.86906,7.5609 14.109,9.75692 26.04354,9.16548 5.66002,-0.28049 7.73705,-0.75096 11.53277,-2.61227 z m -64.0744,-246.63537 c 0.99082,-1.05466 1.62889,-1.91757 1.41796,-1.91757 -0.21093,0 -1.19417,0.86291 -2.18499,1.91757 -0.99081,1.05467 -1.62889,1.91758 -1.41795,1.91758 0.21093,0 1.19417,-0.86291 2.18498,-1.91758 z m 8.86912,-9.01261 2.25284,-2.49285 -2.49286,2.25284 c -1.37106,1.23906 -2.49285,2.36084 -2.49285,2.49285 0,0.59258 0.6329,0.0709 2.73287,-2.25284 z m 9.15612,-9.01262 c 3.35513,-3.37493 5.92767,-6.13624 5.71674,-6.13624 -0.21093,0 -3.12864,2.76131 -6.48378,6.13624 -3.35514,3.37494 -5.92767,6.13625 -5.71674,6.13625 0.21093,0 3.12864,-2.76131 6.48378,-6.13625 z m 35.28342,-35.28343 c 1.64777,-1.68746 2.82337,-3.06812 2.61244,-3.06812 -0.21094,0 -1.7317,1.38066 -3.37947,3.06812 -1.64776,1.68747 -2.82336,3.06813 -2.61243,3.06813 0.21094,0 1.7317,-1.38066 3.37946,-3.06813 z m 15.34063,-15.34062 c 1.64776,-1.68747 2.82336,-3.06812 2.61243,-3.06812 -0.21094,0 -1.7317,1.38065 -3.37946,3.06812 -1.64777,1.68747 -2.82337,3.06813 -2.61244,3.06813 0.21094,0 1.7317,-1.38066 3.37947,-3.06813 z m 18.8901,-18.984017 c 0.95409,-1.216557 0.92696,-1.243687 -0.2896,-0.2896 -0.73827,0.578993 -1.3423,1.18303 -1.3423,1.342304 0,0.631298 0.62987,0.224978 1.6319,-1.052704 z m 18.3109,-18.216988 c 3.56724,-3.58587 6.31331,-6.519764 6.10238,-6.519764 -0.21093,0 -3.30217,2.933894 -6.86941,6.519764 -3.56724,3.58587 -6.31331,6.519764 -6.10237,6.519764 0.21093,0 3.30217,-2.933894 6.8694,-6.519764 z"
   id="path3930"
   inkscape:connector-curvature="0" /><path
   style="fill:#0000ff;fill-opacity:1;stroke-width:0.76703107"
   d="m 72.449461,510.33376 c -14.764718,-1.06503 -30.564208,-8.127 -45.254834,-20.22776 -2.027902,-1.67039 -2.187263,-2.08266 -1.342304,-3.47256 1.296868,-2.13326 1.206837,-2.75869 -0.225941,-1.56959 -1.001353,0.83105 -1.665897,0.5191 -4.293385,-2.01542 C 15.053305,476.99095 8.9460427,466.28978 3.6912836,452.13655 L 0.73205482,444.16613 V 256.64077 69.115407 L 3.3682373,61.237289 C 8.5344308,45.798344 14.991784,35.119866 25.36556,24.860477 35.553997,14.784383 45.306025,8.8031471 59.734362,3.7809719 L 67.612226,1.0388673 H 256.26114 444.91005 l 7.44505,2.7808581 c 12.79872,4.7805443 24.16745,11.0699686 31.24889,17.2875586 1.46231,1.283921 2.65874,2.700438 2.65874,3.147818 0,0.447378 -4.40084,5.324816 -9.77964,10.83875 -8.78928,9.010082 -7.14856,7.704205 6.17368,-4.913746 2.44633,-2.317 4.73629,-4.314483 5.08879,-4.43885 0.87084,-0.307232 6.88027,6.868666 10.4305,12.455116 3.70705,5.83322 7.66553,14.408399 10.44325,22.623048 l 2.18842,6.471892 V 256.18253 445.07375 l -2.67052,7.37743 c -5.50018,15.19449 -10.26376,23.17858 -19.68268,32.98955 -10.60402,11.04539 -19.34996,16.58563 -35.85776,22.71458 l -7.97043,2.95923 -182.25328,-0.11374 C 162.13375,510.93824 76.668132,510.63807 72.449461,510.33376 Z m 65.979489,-73.49799 c 6.51927,-2.2009 12.59264,-6.24394 19.211,-12.78877 4.97358,-4.91833 6.89132,-7.51096 9.60214,-12.98137 l 3.38735,-6.83561 0.27096,-11.63581 c 0.30468,-13.08383 -0.39393,-17.75028 -3.70579,-24.75322 -5.45264,-11.52959 -11.06531,-17.04858 -23.19713,-22.80996 -7.9746,-3.78711 -15.39792,-5.2178 -24.37561,-4.69786 -13.15999,0.76216 -22.737636,5.08079 -32.020753,14.43843 -10.378728,10.46204 -14.287582,19.86984 -14.286653,34.385 8.44e-4,12.71513 2.442225,20.48782 10.020143,31.90099 1.575573,2.37299 2.450173,4.4379 2.111667,4.98562 -0.37122,0.60065 -0.257592,0.73702 0.317811,0.3814 0.506249,-0.31288 3.848057,1.31811 7.68648,3.75144 7.510365,4.76113 13.087745,7.15831 18.884515,8.11667 5.92987,0.98037 21.43938,0.1144 26.09387,-1.45695 z m 127.31234,-15.87518 c 10.73285,-2.96937 20.51592,-13.76678 22.64488,-24.99278 1.57846,-8.32315 0.55733,-23.08154 -2.73572,-39.53955 -5.3355,-26.66583 -17.77708,-52.12339 -37.36858,-76.46238 -3.68613,-4.57937 -6.70205,-8.63505 -6.70205,-9.01262 0,-0.37756 -0.27086,-0.60019 -0.60191,-0.49472 -0.33104,0.10546 -4.73188,-3.14119 -9.77965,-7.21478 -33.90091,-27.3584 -68.99737,-40.41673 -106.50303,-39.6266 -10.78265,0.22716 -11.90885,0.39212 -16.10939,2.35959 -6.41556,3.00496 -14.315633,11.19221 -16.542378,17.14372 -1.470774,3.93101 -1.651978,5.71191 -1.434348,14.09705 0.21338,8.22152 0.501086,10.07712 2.006592,12.9419 3.945209,7.50718 10.472024,13.55021 17.458084,16.16403 2.22546,0.83265 10.0302,2.40392 17.34386,3.49171 17.04361,2.53494 24.71396,4.37055 32.83434,7.85766 13.46219,5.78102 22.5287,11.89649 32.65868,22.02864 14.62813,14.63127 24.38151,33.77651 27.5682,54.11451 3.83149,24.45318 4.26781,26.53136 6.5498,31.19646 4.01352,8.20488 13.7985,15.57101 22.7204,17.1039 4.42666,0.76056 10.70602,0.30676 15.99222,-1.15574 z m 137.35999,-1.41809 c 5.66366,-2.63723 13.58612,-10.36403 16.39986,-15.99481 l 2.33098,-4.66471 -6.4e-4,-15.79338 c -9.7e-4,-23.85769 -1.8887,-40.0181 -7.35516,-62.9658 -11.86673,-49.81542 -34.64328,-92.8967 -70.68435,-133.69774 -4.75775,-5.3861 -7.83258,-9.4883 -7.58861,-10.1241 0.26382,-0.68751 0.0273,-0.922 -0.66274,-0.65719 -0.6366,0.24429 -4.1299,-2.31043 -8.59004,-6.28205 C 270.55951,119.1481 205.43847,92.180538 134.22385,89.551792 114.6987,88.831067 107.97206,90.806356 98.871465,99.933075 c -2.342582,2.349305 -5.190184,6.151355 -6.328006,8.448985 -1.91701,3.87108 -2.068215,4.88387 -2.061273,13.80656 0.0069,8.6185 0.206132,10.05574 1.900258,13.69475 2.186813,4.69731 9.354706,12.54508 13.816386,15.12688 5.17348,2.99368 7.15127,3.33447 35.66694,6.14551 43.06612,4.24542 75.20419,15.48892 109.68545,38.37344 36.55023,24.25765 63.98253,56.56347 83.32822,98.13203 11.41072,24.51847 17.71566,49.77911 20.58059,82.45584 1.61867,18.46214 2.41239,23.34719 4.54885,27.99663 2.30035,5.0061 9.54559,12.09326 15.30542,14.97148 4.35449,2.17596 5.04387,2.28636 14.23327,2.27923 8.53565,-0.007 10.10964,-0.2182 13.55371,-1.82191 z M 339.75979,172.47031 c 0.99082,-1.05466 1.62889,-1.91757 1.41796,-1.91757 -0.21093,0 -1.19417,0.86291 -2.18499,1.91757 -0.99081,1.05467 -1.62889,1.91758 -1.41795,1.91758 0.21093,0 1.19417,-0.86291 2.18498,-1.91758 z m 14.5736,-14.57359 c 1.43111,-1.47653 2.42944,-2.6846 2.2185,-2.6846 -0.21093,0 -1.55442,1.20807 -2.98554,2.6846 -1.43111,1.47654 -2.42944,2.68461 -2.2185,2.68461 0.21093,0 1.55442,-1.20807 2.98554,-2.68461 z m 6.90327,-6.90328 c 1.43112,-1.47653 2.42945,-2.6846 2.21851,-2.6846 -0.21093,0 -1.55442,1.20807 -2.98554,2.6846 -1.43111,1.47654 -2.42944,2.68461 -2.2185,2.68461 0.21093,0 1.55442,-1.20807 2.98553,-2.68461 z m 33.36586,-33.36585 c 0.76357,-0.84373 1.21573,-1.53406 1.00479,-1.53406 -0.21093,0 -1.00825,0.69033 -1.77182,1.53406 -0.76358,0.84374 -1.21573,1.53406 -1.0048,1.53406 0.21093,0 1.00826,-0.69032 1.77183,-1.53406 z m 14.9571,-14.9571 c 0.99082,-1.05467 1.62889,-1.91758 1.41796,-1.91758 -0.21093,0 -1.19418,0.86291 -2.18499,1.91758 -0.99081,1.05466 -1.62889,1.91757 -1.41795,1.91757 0.21093,0 1.19417,-0.86291 2.18498,-1.91757 z m 17.73956,-17.833477 c 0.95409,-1.216557 0.92696,-1.243687 -0.2896,-0.2896 -0.73827,0.578993 -1.3423,1.18303 -1.3423,1.342304 0,0.631298 0.62987,0.224978 1.6319,-1.052704 z"
   id="path3934"
   inkscape:connector-curvature="0" /><path
   style="fill:#0000ff;fill-opacity:1;stroke-width:0.76703107"
   d="m 72.449461,510.33611 c -8.100082,-0.58676 -17.984053,-3.39137 -25.877399,-7.34277 -4.651279,-2.32843 -15.063752,-9.19776 -18.993919,-12.53071 -2.433129,-2.06339 -2.590264,-2.4305 -1.677453,-3.91894 0.909653,-1.4833 0.86415,-1.5969 -0.470035,-1.17344 -1.060245,0.33651 -2.283646,-0.34819 -4.334379,-2.42582 C 14.897228,476.6641 8.891032,466.0665 3.6914103,452.23453 L 0.73205482,444.36208 V 256.52407 68.686069 L 3.4805647,60.749767 C 8.7571873,45.513559 14.91204,35.234739 24.499693,25.647087 35.039737,15.107042 45.209719,8.7858973 59.675924,3.7833266 l 7.936302,-2.7444593 188.807174,0.00548 188.80717,0.00548 7.14143,2.6938976 c 12.75524,4.8115399 25.42507,11.8699821 31.40188,17.4941931 1.37107,1.290181 2.49285,2.703636 2.49285,3.14101 0,0.437375 -3.53793,4.406793 -7.86207,8.820931 l -7.86207,8.02571 8.2563,-7.82085 c 4.54097,-4.301467 8.55648,-7.82085 8.92337,-7.82085 1.11265,0 6.12617,5.951428 9.80771,11.642514 4.20427,6.499138 8.15267,14.896483 11.09334,23.593044 l 2.18842,6.471892 V 256.18253 445.07375 l -2.71038,7.51662 c -5.97495,16.5701 -11.73567,25.52656 -23.66717,36.7964 -8.37659,7.91207 -15.71619,12.45453 -28.46518,17.61707 l -9.20437,3.72718 -183.32043,0.0804 c -100.82623,0.0442 -186.772068,-0.16968 -190.990739,-0.47528 z m 57.005989,-72.08778 c 6.60385,-0.59533 8.82883,-1.15652 13.42304,-3.38562 10.66549,-5.17486 19.952,-14.46133 24.9964,-24.99627 l 2.75455,-5.75274 -0.0196,-14.19007 c -0.022,-15.94307 -0.3532,-17.35569 -6.49124,-27.68755 -4.04638,-6.81106 -7.82201,-10.39558 -15.6071,-14.81715 -9.3776,-5.32603 -15.26875,-6.92916 -25.43801,-6.92233 -15.65582,0.0105 -24.593253,3.67062 -35.296206,14.45468 -11.06417,11.14802 -14.216553,18.74114 -14.24577,34.31367 -0.02449,13.05215 1.190426,17.20782 8.738779,29.89139 3.837962,6.44898 4.110872,6.7122 11.531368,11.12195 13.924879,8.2751 19.196929,9.45361 35.653769,7.97004 z M 270.006,419.26585 c 5.87101,-2.84162 12.58081,-9.42345 15.52036,-15.22436 3.5266,-6.95944 4.34545,-15.69927 2.81671,-30.06399 -3.70093,-34.77558 -15.88202,-63.42247 -39.83163,-93.67405 -3.81239,-4.81557 -6.93162,-9.10135 -6.93162,-9.52397 0,-0.42261 -0.20519,-0.5632 -0.45597,-0.31242 -0.25077,0.25078 -4.30645,-2.66225 -9.01261,-6.4734 -34.47385,-27.91764 -70.52293,-41.35137 -108.40915,-40.39878 -9.88508,0.24855 -10.91037,0.41815 -15.20217,2.5148 -5.64005,2.75531 -13.211962,10.14833 -15.765907,15.39343 -1.617776,3.32247 -1.904101,5.14982 -2.141804,13.66937 -0.270525,9.69593 -0.241009,9.902 2.098758,14.65474 2.649916,5.38274 8.433603,11.69647 13.358363,14.58258 3.94945,2.31453 9.91973,3.74985 24.40033,5.86613 18.86005,2.75631 29.41349,6.07389 41.33616,12.99445 19.25594,11.17718 34.46467,28.55332 42.72456,48.81323 3.37647,8.28184 5.16185,15.48531 7.13298,28.77934 2.08022,14.02981 3.63175,20.953 5.54148,24.727 2.46236,4.86609 9.10801,10.90754 15.31522,13.92279 5.53382,2.68815 5.69851,2.71694 14.03686,2.45429 7.61822,-0.23998 8.92584,-0.50222 13.46908,-2.70118 z m 133.80089,-0.1459 c 5.20458,-2.5356 13.70326,-11.12353 16.09741,-16.26646 1.83309,-3.9377 1.91287,-4.73256 1.91377,-19.06611 0.002,-24.53118 -2.51079,-44.78471 -8.42033,-67.88225 -12.35691,-48.29714 -34.04636,-88.77565 -68.93384,-128.64961 -4.69659,-5.36788 -8.53926,-10.11389 -8.53926,-10.54668 0,-0.43279 -0.3541,-0.78689 -0.78689,-0.78689 -0.43279,0 -5.03602,-3.71051 -10.2294,-8.24558 -56.51131,-49.34799 -118.27703,-74.74385 -189.94586,-78.098943 -13.11111,-0.613779 -20.48305,0.305493 -26.74089,3.33456 -5.62519,2.722837 -13.103371,10.202783 -15.710863,15.714583 -1.861914,3.93576 -2.035401,5.11149 -2.028551,13.74746 0.0069,8.28814 0.227601,9.91631 1.806396,13.30674 2.177724,4.67661 9.519458,12.78868 13.833668,15.28515 4.69672,2.71782 7.53122,3.2554 28.45673,5.39689 29.09338,2.97737 44.79484,6.00727 62.93677,12.14485 32.1278,10.86912 65.2043,31.49346 89.32738,55.6987 29.56915,29.66985 51.35759,67.67851 61.36027,107.03939 3.51026,13.813 5.65133,26.95484 7.24799,44.4878 2.29179,25.16633 3.12917,28.28995 9.37442,34.96893 8.31388,8.89126 12.68511,10.67919 25.55804,10.45379 8.39518,-0.147 10.06496,-0.40031 13.42304,-2.03632 z m -64.0471,-246.64964 c 0.99082,-1.05466 1.62889,-1.91757 1.41796,-1.91757 -0.21093,0 -1.19417,0.86291 -2.18499,1.91757 -0.99081,1.05467 -1.62889,1.91758 -1.41795,1.91758 0.21093,0 1.19417,-0.86291 2.18498,-1.91758 z m 54.84273,-54.84272 c 0.76357,-0.84373 1.21573,-1.53406 1.00479,-1.53406 -0.21093,0 -1.00825,0.69033 -1.77182,1.53406 -0.76358,0.84374 -1.21573,1.53406 -1.0048,1.53406 0.21093,0 1.00826,-0.69032 1.77183,-1.53406 z m 14.9571,-14.9571 c 0.99082,-1.05467 1.62889,-1.91758 1.41796,-1.91758 -0.21093,0 -1.19418,0.86291 -2.18499,1.91758 -0.99081,1.05466 -1.62889,1.91757 -1.41795,1.91757 0.21093,0 1.19417,-0.86291 2.18498,-1.91757 z m 17.73956,-17.833477 c 0.95409,-1.216557 0.92696,-1.243687 -0.2896,-0.2896 -0.73827,0.578993 -1.3423,1.18303 -1.3423,1.342304 0,0.631298 0.62987,0.224978 1.6319,-1.052704 z"
   id="path3936"
   inkscape:connector-curvature="0" /><path
   style="fill:#0000ff;fill-opacity:1;stroke-width:0.76703107"
   d="m 72.065946,510.31063 c -13.15591,-1.04856 -26.854681,-6.68578 -40.166513,-16.52905 -6.638143,-4.90849 -7.447413,-6.03902 -5.663595,-7.91187 0.782553,-0.82162 0.635672,-0.90894 -0.799091,-0.47506 -1.427512,0.43169 -2.33404,-0.0927 -4.823607,-2.79016 C 14.27925,475.74166 8.8938401,466.09107 3.7376599,452.36385 L 0.73205482,444.36208 V 256.06633 67.770572 H 255.76989 510.80773 V 256.3991 445.02763 l -2.3856,6.77264 c -5.4362,15.43317 -10.62405,24.09193 -20.53476,34.2734 -10.54552,10.83362 -19.68633,16.55807 -35.69091,22.3515 l -7.42952,2.68937 -182.7071,-0.11157 C 161.57093,510.9416 76.073683,510.63005 72.065946,510.31063 Z M 136.81625,437.0107 c 11.9018,-2.88216 25.30152,-14.80772 31.36152,-27.9113 2.09521,-4.53048 2.33823,-5.89613 2.66168,-14.9571 0.48131,-13.48335 -0.56495,-19.88377 -4.55434,-27.86109 -5.34371,-10.68542 -12.11931,-16.81545 -24.50524,-22.1704 -10.50197,-4.54044 -25.27892,-4.92165 -36.63733,-0.94514 -8.613587,3.01555 -18.732538,11.43689 -24.895364,20.71877 -4.623376,6.96331 -6.073042,12.06748 -6.478575,22.8106 -0.548063,14.51891 1.449077,21.73133 9.329844,33.69358 2.951045,4.47941 4.612649,6.09455 9.231327,8.97325 8.829448,5.50315 15.159988,8.17373 20.940068,8.8337 6.72278,0.7676 17.78178,0.21111 23.54641,-1.18487 z m 128.59407,-16.09001 c 5.51701,-1.61326 10.65921,-4.96518 15.02372,-9.79314 7.47819,-8.27228 9.5493,-17.04812 8.06362,-34.16766 -3.06415,-35.30817 -15.96199,-66.44488 -40.06529,-96.72171 -3.19055,-4.00774 -6.19968,-7.97712 -6.68697,-8.82086 -0.48728,-0.84373 -0.89647,-1.27333 -0.90929,-0.95466 -0.0128,0.31867 -4.30508,-2.8363 -9.53835,-7.01106 -26.83381,-21.40626 -51.01008,-32.79922 -80.99464,-38.16838 -5.10782,-0.91462 -11.75943,-1.3223 -22.24391,-1.36331 l -14.9571,-0.0585 -4.48281,2.19928 c -5.63027,2.76222 -12.655557,9.57231 -15.543414,15.06727 -2.132607,4.05788 -2.212816,4.59913 -2.215201,14.94876 -0.0023,10.45159 0.05776,10.84721 2.253468,14.81075 1.240773,2.23977 4.570025,6.25529 7.398347,8.92338 6.46329,6.09714 9.81737,7.27686 29.46429,10.36334 16.53969,2.59835 21.20113,3.70814 29.45235,7.01199 28.68994,11.48765 51.55868,37.40022 59.12871,66.99878 0.79194,3.09646 2.35104,11.57823 3.46466,18.84837 2.43119,15.87172 4.10382,21.625 7.62932,26.2422 3.74662,4.90681 11.57971,10.40908 17.29224,12.14675 3.45945,1.05232 14.1448,0.76208 18.46625,-0.50158 z m 138.32975,-1.79409 c 4.64492,-2.27747 12.47257,-9.87331 15.47106,-15.0129 2.20509,-3.77965 2.24121,-4.02941 2.49581,-17.2582 0.60895,-31.64097 -3.8572,-59.51417 -14.80972,-92.42724 -13.43158,-40.36284 -32.81812,-73.45928 -63.43316,-108.29217 -4.14668,-4.71797 -7.53942,-8.86438 -7.53942,-9.21425 0,-0.34986 -0.66031,-0.97684 -1.46736,-1.39327 -0.80705,-0.41644 -5.84924,-4.55397 -11.20488,-9.1945 -54.39366,-47.13086 -114.39038,-72.183717 -182.92069,-76.382267 -17.58866,-1.077581 -24.81681,-0.3799 -31.82909,3.072232 -6.37661,3.139197 -13.022368,9.802875 -15.911651,15.954545 -2.158947,4.5967 -2.232774,5.1238 -1.9875,14.19008 0.315434,11.6595 1.567804,14.62849 9.532831,22.59942 4.87452,4.87814 6.11506,5.69401 10.77146,7.08408 3.17338,0.94735 12.7226,2.34197 24.05473,3.51308 21.5155,2.2235 33.46436,4.11871 46.02187,7.29954 59.7517,15.13515 112.33798,55.37794 143.66318,109.94134 18.73693,32.63669 26.81543,60.01199 31.23736,105.85285 1.99787,20.71135 3.15809,24.8877 8.55422,30.79194 8.41109,9.20307 13.16965,11.17479 26.32824,10.90917 7.94114,-0.1603 9.72155,-0.43938 12.97271,-2.03348 z M 339.85764,172.27856 c 0.95408,-1.21656 0.92695,-1.24369 -0.2896,-0.2896 -1.27769,1.00202 -1.684,1.6319 -1.05271,1.6319 0.15928,0 0.76331,-0.60404 1.34231,-1.3423 z m 54.4592,-54.45921 c 0.95409,-1.21655 0.92696,-1.24368 -0.2896,-0.2896 -0.73826,0.57899 -1.3423,1.18303 -1.3423,1.34231 0,0.63129 0.62988,0.22497 1.6319,-1.05271 z M 409.17611,103.054 c 0.76357,-0.84373 1.21573,-1.53406 1.00479,-1.53406 -0.21093,0 -1.00825,0.69033 -1.77182,1.53406 -0.76358,0.84374 -1.21573,1.53406 -1.0048,1.53406 0.21093,0 1.00826,-0.69032 1.77183,-1.53406 z"
   id="path3938"
   inkscape:connector-curvature="0" /><path
   style="fill:#0000ff;fill-opacity:1;stroke-width:0.76703107"
   d="m 72.065946,510.31063 c -13.15591,-1.04856 -26.854681,-6.68578 -40.166513,-16.52905 -6.638143,-4.90849 -7.447413,-6.03902 -5.663595,-7.91187 0.782553,-0.82162 0.635672,-0.90894 -0.799091,-0.47506 -4.357414,1.3177 -15.02698,-14.98117 -21.9296154,-33.49977 L 0.73205482,444.44983 V 256.1102 67.770572 H 255.76989 510.80773 V 256.3991 445.02763 l -2.3856,6.77264 c -5.50129,15.61797 -10.63434,24.11922 -20.9165,34.64144 -10.41986,10.66313 -19.29956,16.18821 -35.36126,22.00231 l -7.37743,2.67052 -182.7071,-0.11157 C 161.57093,510.9416 76.073683,510.63005 72.065946,510.31063 Z M 140.20098,436.0576 c 9.42078,-3.85293 20.11165,-13.22437 25.37723,-22.24527 4.72824,-8.10035 5.0601,-9.71945 4.97485,-24.27222 -0.0876,-14.96275 -0.85461,-18.08173 -6.7765,-27.55773 -4.1791,-6.68726 -6.87239,-9.30275 -14.24047,-13.82913 -8.90488,-5.47045 -16.12754,-7.47078 -26.84609,-7.43504 -9.73254,0.0324 -15.5419,1.21996 -22.13169,4.52405 -9.220555,4.62315 -20.718972,16.86159 -23.963337,25.50559 -2.517076,6.70628 -3.192618,11.99938 -2.789973,21.86039 0.450345,11.02921 2.091282,16.17562 8.323097,26.10337 3.623432,5.77241 4.830992,7.02669 9.880657,10.26299 13.472286,8.6343 15.820706,9.3065 31.448276,9.00172 10.88081,-0.2122 13.22941,-0.48134 16.74395,-1.91872 z m 129.28856,-16.83352 c 6.3255,-2.96006 13.1709,-9.57648 16.0301,-15.49389 4.06266,-8.4081 4.44625,-20.39776 1.27608,-39.88562 -4.63767,-28.50881 -15.57614,-53.50695 -33.93644,-77.55629 -3.88344,-5.08674 -8.18258,-10.8102 -9.55364,-12.71881 -1.37107,-1.90861 -2.49286,-3.2604 -2.49286,-3.00398 0,0.25642 -3.71051,-2.49858 -8.24558,-6.12221 -30.76407,-24.58127 -59.98269,-37.23049 -93.01675,-40.26847 -5.26551,-0.48425 -13.37838,-0.71559 -18.02858,-0.5141 -7.27381,0.31517 -9.07073,0.66787 -12.86304,2.52479 -5.51709,2.70145 -12.875992,9.80133 -15.66043,15.10919 -2.023075,3.85649 -2.121285,4.54041 -2.122773,14.78201 -0.0015,12.49532 0.540856,14.04558 7.576978,21.64543 7.228745,7.80791 11.115205,9.25678 34.583095,12.89262 14.71362,2.27954 23.87553,4.95345 33.37507,9.74052 10.41584,5.24881 17.45568,10.37812 26.07906,19.0015 8.62337,8.62338 13.75268,15.66321 19.0015,26.07905 4.91104,9.74556 7.50737,18.83686 10.44003,36.55678 1.45503,8.79167 3.23406,17.71067 3.95339,19.82001 2.64411,7.75346 9.66911,14.76582 18.55047,18.5171 3.92747,1.65888 5.31104,1.83951 12.16696,1.58845 6.72856,-0.24639 8.40623,-0.59711 12.88736,-2.69408 z m 134.5353,-0.42694 c 4.83936,-2.48327 12.20047,-9.63217 15.23632,-14.79709 l 2.18745,-3.7215 -0.0734,-19.94281 c -0.0762,-20.69796 -0.96275,-30.61093 -4.21869,-47.17241 -10.73519,-54.60489 -33.40422,-100.30058 -71.80975,-144.75241 -5.18216,-5.998 -9.42212,-11.26175 -9.42212,-11.69722 0,-0.43546 -0.37896,-0.79175 -0.84214,-0.79175 -0.46317,0 -4.51885,-3.21978 -9.01261,-7.15506 -56.06215,-49.09483 -116.06528,-74.490248 -186.1217,-78.773189 -16.11128,-0.984973 -24.40781,-0.265356 -30.82808,2.673939 -5.65158,2.587381 -13.465176,10.23619 -16.346045,16.00131 -2.122866,4.24824 -2.299383,5.22909 -2.299383,12.77709 0,10.70671 1.155356,14.43685 6.465673,20.87479 7.851255,9.51844 11.756695,11.17475 31.199845,13.23196 34.43718,3.64368 47.78312,6.02026 65.07512,11.58831 68.57414,22.08094 122.92562,74.23325 148.34578,142.34342 7.60081,20.36542 11.09478,37.35646 14.30462,69.56273 1.81036,18.16441 2.44368,21.40729 5.15288,26.38497 3.5627,6.54587 12.17363,13.46015 19.01032,15.26464 1.2656,0.33404 6.27048,0.51122 11.12195,0.39373 7.84729,-0.19005 9.2682,-0.44318 12.87396,-2.29345 z m -64.1672,-246.51858 c 0.95408,-1.21656 0.92695,-1.24369 -0.2896,-0.2896 -1.27769,1.00202 -1.684,1.6319 -1.05271,1.6319 0.15928,0 0.76331,-0.60404 1.34231,-1.3423 z m 54.4592,-54.45921 c 0.95409,-1.21655 0.92696,-1.24368 -0.2896,-0.2896 -0.73826,0.57899 -1.3423,1.18303 -1.3423,1.34231 0,0.63129 0.62988,0.22497 1.6319,-1.05271 z m 15.34063,-15.34062 c 0.95408,-1.21656 0.92695,-1.24369 -0.2896,-0.2896 -0.73827,0.57899 -1.34231,1.18303 -1.34231,1.34231 0,0.63129 0.62988,0.22497 1.63191,-1.05271 z"
   id="path3940"
   inkscape:connector-curvature="0" /><path
   style="fill:#0000ff;fill-opacity:1;stroke-width:0.76703107"
   d="m 71.68243,510.30755 c -12.877788,-1.0976 -26.687845,-6.84293 -39.859507,-16.58254 -5.107696,-3.77682 -6.610477,-5.29152 -6.32666,-6.37684 0.264459,-1.01129 -0.13787,-1.55145 -1.389556,-1.8656 -2.126137,-0.53363 -8.18361,-8.04495 -12.422658,-15.40419 -1.7010156,-2.95307 -4.8610846,-9.8014 -7.022375,-15.21851 L 0.73205482,445.01058 V 256.39057 67.770572 H 255.76989 510.80773 V 256.3991 445.02763 l -2.3856,6.77264 c -5.51116,15.64599 -11.43219,25.35962 -21.58516,35.41108 -10.3926,10.28869 -18.50529,15.29204 -34.38062,21.20355 l -7.22978,2.69218 -183.32043,-0.10558 C 161.0799,510.94344 75.479234,510.63116 71.68243,510.30755 Z m 62.94743,-72.89543 c 7.52498,-1.37968 14.40532,-5.49343 22.27125,-13.31593 5.75371,-5.72194 7.56945,-8.13609 10.32465,-13.72731 l 3.34312,-6.78435 -0.042,-13.15846 c -0.0364,-11.40111 -0.26182,-13.79249 -1.68804,-17.90591 -4.81166,-13.87758 -13.92225,-23.13766 -28.39912,-28.86511 -5.14717,-2.03637 -7.02817,-2.35822 -15.44866,-2.64332 -16.22846,-0.54949 -25.92804,2.96975 -36.296805,13.16933 -6.62836,6.52022 -10.52586,12.23352 -12.899538,18.90927 -1.534805,4.31652 -1.758031,6.40522 -1.758031,16.44978 0,13.10305 0.984426,17.07584 6.624,26.73212 4.309234,7.37843 7.154352,10.26711 14.443257,14.66443 9.734017,5.87241 14.652107,7.26644 25.719337,7.29012 5.09039,0.0109 11.30334,-0.3557 13.80656,-0.81466 z m 135.09263,-18.35598 c 6.31439,-3.10856 13.14381,-9.82337 15.88557,-15.61897 2.97373,-6.28596 3.8898,-15.15464 2.77087,-26.82551 -3.46223,-36.11234 -15.76748,-65.54359 -40.58997,-97.08173 -17.76658,-22.57326 -58.91408,-46.38833 -91.52005,-52.96934 -10.14255,-2.04712 -27.06268,-3.37645 -35.77923,-2.81099 -5.29628,0.34358 -8.28267,0.96823 -11.35614,2.37531 -5.20466,2.38277 -13.125831,9.89724 -16.000533,15.17901 -2.07768,3.81739 -2.179588,4.47534 -2.226078,14.37236 -0.04418,9.40131 0.120424,10.71534 1.758956,14.04298 2.319502,4.71059 8.578065,11.55687 12.857285,14.06466 4.48765,2.62994 8.64496,3.6631 27.13823,6.74431 10.85639,1.80882 18.05803,3.45632 23.26325,5.32189 28.42862,10.18892 51.15141,33.36476 60.64896,61.8582 1.62782,4.88358 3.60865,13.63949 5.03218,22.2439 2.9892,18.0679 3.68518,21.08996 5.82928,25.31203 3.05457,6.01491 10.53777,12.48239 17.90902,15.4782 2.88293,1.17167 4.95937,1.37331 11.43597,1.11053 7.00841,-0.28435 8.48858,-0.60421 12.94243,-2.79684 z m 134.4161,-0.41468 c 4.50517,-2.45201 12.29993,-10.0994 15.24471,-14.95646 l 2.06531,-3.40645 -0.11359,-19.5593 c -0.16301,-28.07178 -2.95045,-47.46294 -10.64704,-74.06732 -12.85083,-44.4208 -32.74752,-80.26423 -66.05489,-118.99639 -4.78965,-5.56974 -8.70845,-10.48833 -8.70845,-10.93019 0,-0.44187 -0.35405,-0.8034 -0.78677,-0.8034 -0.43273,0 -5.67338,-4.19169 -11.6459,-9.31487 C 267.8315,118.86194 207.97122,93.969848 139.38339,90.048013 c -22.98206,-1.314108 -30.38331,0.524319 -39.783053,9.881868 -7.977338,7.941529 -8.74213,9.892399 -8.74213,22.299899 0,10.06344 0.06481,10.47281 2.301094,14.54295 2.866433,5.21695 9.706909,12.31709 13.954219,14.48391 3.82594,1.95184 12.4591,3.4908 28.61601,5.10111 31.70032,3.15946 50.70617,7.38486 72.48443,16.11482 62.81361,25.17926 112.22025,76.65581 134.45887,140.0921 7.14031,20.36796 10.04393,34.84754 13.1588,65.61957 1.86973,18.47118 2.63489,22.44535 5.26389,27.34031 2.25359,4.19598 8.8474,10.56856 13.27006,12.82483 4.82115,2.45957 8.25847,2.99109 17.32986,2.67976 7.59648,-0.26072 9.0464,-0.53893 12.44315,-2.38768 z"
   id="path3942"
   inkscape:connector-curvature="0" /></svg>