<?xml version="1.0" encoding="iso-8859-1"?>
<!-- Generator: Adobe Illustrator 19.0.0, SVG Export Plug-In . SVG Version: 6.00 Build 0)  -->
<svg version="1.1" id="Layer_1" xmlns="http://www.w3.org/2000/svg" xmlns:xlink="http://www.w3.org/1999/xlink" x="0px" y="0px"
	 viewBox="0 0 512 512" style="enable-background:new 0 0 512 512;" xml:space="preserve">
<path style="fill:#EC7838;" d="M512,428.556V83.444c0-22.986-9.289-43.927-24.403-59.041S451.542,0,428.556,0H83.444
	C37.392-0.079-0.079,37.392,0,83.444v345.111c0,22.986,9.289,43.927,24.403,59.041S60.458,512,83.444,511.999h345.111
	C474.608,512.079,512.079,474.608,512,428.556z"/>
<path style="fill:#DB632C;" d="M428.556,512H83.444c-22.986,0-43.927-9.289-59.041-24.403L487.597,24.403
	C502.711,39.517,512.001,60.458,512,83.444v345.111C512.079,474.608,474.608,512.079,428.556,512z"/>
<g>
	<path style="fill:#E6EEFF;" d="M172.477,389.589c0-13.855-5.589-26.371-14.642-35.425c-9.053-9.053-21.57-14.642-35.425-14.642
		c-27.632-0.079-50.146,22.436-50.066,50.066c0,13.855,5.59,26.37,14.643,35.423s21.569,14.642,35.423,14.642
		C150.041,439.735,172.556,417.22,172.477,389.589z"/>
	<path style="fill:#E6EEFF;" d="M389.589,422.967c-18.421,0-33.377-14.957-33.378-33.378
		c0.079-64.472-26.213-122.883-68.566-165.235s-100.763-68.645-165.235-68.566c-18.42,0-33.377-14.957-33.378-33.378
		c0-18.42,14.957-33.377,33.377-33.377c82.894,0.079,158.072,33.692,212.467,88.088s88.009,129.575,88.088,212.467
		C422.967,408.01,408.01,422.967,389.589,422.967z"/>
	<path style="fill:#E6EEFF;" d="M256,423.046c-18.42,0-33.456-15.035-33.456-33.456c0-27.553-11.178-52.586-29.363-70.77
		c-18.105-18.105-43.139-29.284-70.77-29.363c-18.421,0-33.456-15.036-33.456-33.456s15.035-33.456,33.456-33.456
		c46.052,0.079,87.773,18.814,118.002,49.043s48.964,71.951,49.043,118.002C289.456,408.011,274.42,423.046,256,423.046z"/>
</g>
<g>
	<path style="fill:#DAE2F2;" d="M122.411,439.656c-13.855,0-26.37-5.59-35.423-14.642l70.849-70.849
		c9.053,9.053,14.642,21.57,14.642,35.425C172.556,417.22,150.041,439.735,122.411,439.656z"/>
	<path style="fill:#DAE2F2;" d="M256,423.046c-18.42,0-33.456-15.035-33.456-33.456c0-27.553-11.178-52.586-29.363-70.77
		l47.232-47.232c30.229,30.229,48.964,71.951,49.043,118.002C289.456,408.011,274.42,423.046,256,423.046z"/>
	<path style="fill:#DAE2F2;" d="M389.589,422.967c-18.421,0-33.377-14.957-33.378-33.378
		c0.079-64.472-26.213-122.883-68.566-165.235l47.232-47.232c54.396,54.396,88.009,129.575,88.088,212.467
		C422.967,408.01,408.01,422.967,389.589,422.967z"/>
</g>
<g>
</g>
<g>
</g>
<g>
</g>
<g>
</g>
<g>
</g>
<g>
</g>
<g>
</g>
<g>
</g>
<g>
</g>
<g>
</g>
<g>
</g>
<g>
</g>
<g>
</g>
<g>
</g>
<g>
</g>
</svg>
