<?xml version="1.0" encoding="UTF-8" standalone="no"?>
<!-- Generator: Adobe Illustrator 19.0.0, SVG Export Plug-In . SVG Version: 6.00 Build 0)  -->

<svg
   xmlns:dc="http://purl.org/dc/elements/1.1/"
   xmlns:cc="http://creativecommons.org/ns#"
   xmlns:rdf="http://www.w3.org/1999/02/22-rdf-syntax-ns#"
   xmlns:svg="http://www.w3.org/2000/svg"
   xmlns="http://www.w3.org/2000/svg"
   xmlns:sodipodi="http://sodipodi.sourceforge.net/DTD/sodipodi-0.dtd"
   xmlns:inkscape="http://www.inkscape.org/namespaces/inkscape"
   version="1.1"
   id="Layer_1"
   x="0px"
   y="0px"
   viewBox="0 0 512 512"
   style="enable-background:new 0 0 512 512;"
   xml:space="preserve"
   sodipodi:docname="rsshtml.svg"
   inkscape:version="0.92.4 (5da689c313, 2019-01-14)"><metadata
   id="metadata4112"><rdf:RDF><cc:Work
       rdf:about=""><dc:format>image/svg+xml</dc:format><dc:type
         rdf:resource="http://purl.org/dc/dcmitype/StillImage" /><dc:title></dc:title></cc:Work></rdf:RDF></metadata><defs
   id="defs4110" /><sodipodi:namedview
   pagecolor="#ffffff"
   bordercolor="#666666"
   borderopacity="1"
   objecttolerance="10"
   gridtolerance="10"
   guidetolerance="10"
   inkscape:pageopacity="0"
   inkscape:pageshadow="2"
   inkscape:window-width="1366"
   inkscape:window-height="705"
   id="namedview4108"
   showgrid="false"
   inkscape:zoom="0.5253906"
   inkscape:cx="65.189582"
   inkscape:cy="113.84163"
   inkscape:window-x="-8"
   inkscape:window-y="-8"
   inkscape:window-maximized="1"
   inkscape:current-layer="Layer_1" />
<g
   id="g5085"
   transform="translate(439.67288,-473.93311)"><path
     inkscape:connector-curvature="0"
     id="path4057"
     d="m 74.230463,904.39245 v -345.112 c 0,-22.986 -9.289,-43.927 -24.403,-59.041 -15.114,-15.114 -36.055,-24.403 -59.041,-24.403 H -354.32553 c -46.052,-0.079 -83.523,37.392 -83.444,83.444 v 345.111 c 0,22.986 9.289,43.927 24.403,59.041 15.114,15.114 36.055,24.404 59.041,24.403 H -9.214537 c 46.053,0.08 83.524,-37.391 83.445,-83.443 z"
     style="fill:#0000ff" /></g>

<g
   id="g4067"
   transform="translate(26.646843,-11.420071)">
	<path
   style="fill:#e6eeff"
   d="m 172.477,389.589 c 0,-13.855 -5.589,-26.371 -14.642,-35.425 -9.053,-9.053 -21.57,-14.642 -35.425,-14.642 -27.632,-0.079 -50.146,22.436 -50.066,50.066 0,13.855 5.59,26.37 14.643,35.423 9.053,9.053 21.569,14.642 35.423,14.642 27.631,0.082 50.146,-22.433 50.067,-50.064 z"
   id="path4061"
   inkscape:connector-curvature="0" />
	<path
   style="fill:#e6eeff"
   d="m 389.589,422.967 c -18.421,0 -33.377,-14.957 -33.378,-33.378 0.079,-64.472 -26.213,-122.883 -68.566,-165.235 -42.353,-42.352 -100.763,-68.645 -165.235,-68.566 -18.42,0 -33.377,-14.957 -33.378,-33.378 0,-18.42 14.957,-33.377 33.377,-33.377 82.894,0.079 158.072,33.692 212.467,88.088 54.395,54.396 88.009,129.575 88.088,212.467 0.003,18.422 -14.954,33.379 -33.375,33.379 z"
   id="path4063"
   inkscape:connector-curvature="0" />
	<path
   style="fill:#e6eeff"
   d="m 256,423.046 c -18.42,0 -33.456,-15.035 -33.456,-33.456 0,-27.553 -11.178,-52.586 -29.363,-70.77 -18.105,-18.105 -43.139,-29.284 -70.77,-29.363 -18.421,0 -33.456,-15.036 -33.456,-33.456 0,-18.42 15.035,-33.456 33.456,-33.456 46.052,0.079 87.773,18.814 118.002,49.043 30.229,30.229 48.964,71.951 49.043,118.002 0,18.421 -15.036,33.456 -33.456,33.456 z"
   id="path4065"
   inkscape:connector-curvature="0" />
</g>

<g
   id="g4077">
</g>
<g
   id="g4079">
</g>
<g
   id="g4081">
</g>
<g
   id="g4083">
</g>
<g
   id="g4085">
</g>
<g
   id="g4087">
</g>
<g
   id="g4089">
</g>
<g
   id="g4091">
</g>
<g
   id="g4093">
</g>
<g
   id="g4095">
</g>
<g
   id="g4097">
</g>
<g
   id="g4099">
</g>
<g
   id="g4101">
</g>
<g
   id="g4103">
</g>
<g
   id="g4105">
</g>
<path
   style="fill:#000080;stroke-width:0.33646718"
   d=""
   id="path4787"
   inkscape:connector-curvature="0" /><path
   style="fill:#000080;stroke-width:0.33646718"
   d=""
   id="path4789"
   inkscape:connector-curvature="0" /><path
   style="fill:#000080;stroke-width:0.33646718"
   d="m 159.11474,354.77591 c -0.61445,-0.67897 -0.58585,-0.7248 2.19944,-3.52464 1.55209,-1.56019 2.89758,-2.76112 2.98999,-2.66871 0.0924,0.0924 -1.02307,1.3661 -2.47882,2.83043 -2.28832,2.30183 -2.58701,2.7345 -2.20527,3.19447 0.66789,0.80476 0.20896,0.95774 -0.50534,0.16845 z"
   id="path4803"
   inkscape:connector-curvature="0" /><path
   style="fill:#000080;stroke-width:0.33646718"
   d="m 23.982884,486.76415 c -0.113125,-0.18304 1.494672,-1.97649 3.572883,-3.98543 2.078211,-2.00894 16.004941,-15.84318 30.94829,-30.74276 14.943348,-14.89957 27.169725,-26.93969 27.169725,-26.7558 0,0.57021 -61.472815,61.83685 -61.690898,61.48399 z"
   id="path4807"
   inkscape:connector-curvature="0" /></svg>